<svg width="87" height="48" viewBox="0 0 87 48" fill="none" xmlns="http://www.w3.org/2000/svg">
<path d="M20.8632 21.3305C23.0001 21.3305 24.7323 19.5545 24.7323 17.3638C24.7323 15.1731 23.0001 13.3972 20.8632 13.3972C18.7264 13.3972 16.9941 15.1731 16.9941 17.3638C16.9941 19.5545 18.7264 21.3305 20.8632 21.3305Z" stroke="white" stroke-width="0.731399" stroke-miterlimit="10"/>
<path d="M23.9589 9.27211C26.0958 9.27211 27.828 7.4962 27.828 5.30549C27.828 3.11479 26.0958 1.33887 23.9589 1.33887C21.8221 1.33887 20.0898 3.11479 20.0898 5.30549C20.0898 7.4962 21.8221 9.27211 23.9589 9.27211Z" stroke="white" stroke-width="0.731399" stroke-miterlimit="10"/>
<path d="M24.1086 5.74208C24.1396 5.74002 24.1698 5.73134 24.1971 5.71662C24.2245 5.7019 24.2483 5.68148 24.2671 5.65675C24.6474 5.13258 24.1647 4.97655 24.1647 4.97655L16.6874 5.57386C16.6516 5.57847 16.6153 5.57429 16.5815 5.5617C16.5477 5.54911 16.5175 5.52847 16.4935 5.50158C16.4695 5.47469 16.4524 5.44235 16.4437 5.40737C16.435 5.37238 16.435 5.3358 16.4436 5.3008C16.5756 4.67823 16.8043 4.08017 17.1213 3.52837C17.1598 3.45819 17.2164 3.39964 17.2852 3.35886C17.3541 3.31807 17.4326 3.29655 17.5126 3.29655C17.5927 3.29655 17.6712 3.31807 17.74 3.35886C17.8089 3.39964 17.8655 3.45819 17.9039 3.52837L17.9015 4.14275C17.8989 4.18461 17.9091 4.22627 17.9307 4.26221C17.9729 4.32658 18.0297 4.38004 18.0965 4.41824C18.1282 4.43471 18.1633 4.44321 18.199 4.44301C18.2347 4.44281 18.2698 4.43393 18.3012 4.41712C18.3327 4.40031 18.3596 4.37608 18.3795 4.34654C18.3995 4.317 18.412 4.28304 18.4159 4.24758C18.4744 3.75998 18.489 2.66776 17.47 2.62388C16.0949 2.55561 15.7366 5.15696 15.6512 6.11509C15.647 6.16026 15.6525 6.2058 15.6673 6.24868C15.6821 6.29156 15.7059 6.3308 15.737 6.36378C15.7681 6.39677 15.8059 6.42274 15.8479 6.43997C15.8899 6.45721 15.935 6.4653 15.9804 6.46372H17.1018C17.1327 6.46391 17.1632 6.47054 17.1914 6.48319C17.2195 6.49583 17.2447 6.51422 17.2654 6.53716C17.286 6.56011 17.3017 6.58711 17.3113 6.61645C17.3209 6.64578 17.3243 6.6768 17.3212 6.70752L16.7971 12.3491C16.793 12.4019 16.7696 12.4515 16.7314 12.4883C16.6932 12.5252 16.6429 12.5467 16.5898 12.549L15.0198 12.6416C14.9864 12.6432 14.9532 12.6373 14.9224 12.6243C14.8917 12.6113 14.8643 12.5915 14.8423 12.5664C14.8203 12.5414 14.8042 12.5117 14.7952 12.4795C14.7863 12.4473 14.7847 12.4136 14.7906 12.3807C14.845 12.1099 14.8776 11.8352 14.8881 11.5591C14.8881 11.2812 14.6443 11.1788 14.5176 11.1008C14.5002 11.0892 14.4803 11.082 14.4595 11.0799C14.4388 11.0778 14.4178 11.0809 14.3985 11.0888C14.3792 11.0968 14.3622 11.1094 14.3489 11.1255C14.3357 11.1416 14.3266 11.1608 14.3225 11.1813L13.7008 14.1532C13.6928 14.188 13.6935 14.2242 13.7029 14.2586C13.7123 14.2931 13.73 14.3247 13.7545 14.3506C13.8276 14.4257 13.9255 14.4717 14.03 14.4799C14.0793 14.4842 14.1286 14.4719 14.1701 14.445C14.2117 14.418 14.243 14.3779 14.2591 14.3311L14.5151 13.5997C14.5285 13.5598 14.553 13.5245 14.5859 13.4981C14.6187 13.4718 14.6585 13.4554 14.7004 13.451L16.5679 13.2657C16.6022 13.2621 16.6368 13.2667 16.669 13.279C16.7012 13.2912 16.73 13.3109 16.7532 13.3364L20.7515 17.7248C20.7722 17.7477 20.7974 17.766 20.8255 17.7786C20.8536 17.7912 20.884 17.7978 20.9149 17.798H21.066C21.1125 17.7982 21.1578 17.7837 21.1955 17.7566C21.2331 17.7294 21.2612 17.691 21.2757 17.6468L23.1724 12.0248C23.1845 11.989 23.1873 11.9508 23.1804 11.9137C23.1736 11.8766 23.1574 11.8418 23.1334 11.8127L18.745 6.54662C18.725 6.52387 18.71 6.49708 18.7012 6.46806C18.6924 6.43904 18.6898 6.40846 18.6938 6.37839V6.3272C18.6999 6.27658 18.7235 6.22968 18.7604 6.19453C18.7973 6.15938 18.8453 6.13819 18.8962 6.13459L24.1086 5.74208ZM22.1363 13.0146L20.9173 16.3571C20.904 16.3926 20.8819 16.4241 20.8531 16.4486C20.8242 16.4731 20.7896 16.4898 20.7524 16.4971C20.7153 16.5045 20.6769 16.5022 20.6409 16.4905C20.6049 16.4788 20.5725 16.458 20.5467 16.4303L17.8479 13.5047C17.821 13.4751 17.8026 13.4388 17.7947 13.3996C17.7868 13.3604 17.7896 13.3198 17.8028 13.2821C17.8161 13.2444 17.8392 13.211 17.8699 13.1853C17.9006 13.1597 17.9376 13.1428 17.9771 13.1365L21.8779 12.5075C21.9084 12.5045 21.9392 12.5078 21.9684 12.5173C21.9975 12.5268 22.0244 12.5422 22.0473 12.5626C22.0702 12.583 22.0887 12.6079 22.1015 12.6357C22.1143 12.6636 22.1211 12.6938 22.1217 12.7245V12.9366C22.1318 12.9614 22.1367 12.9879 22.1363 13.0146ZM21.756 11.6762L17.7698 12.3052C17.737 12.3086 17.7038 12.3047 17.6726 12.2936C17.6415 12.2826 17.6132 12.2648 17.5898 12.2414C17.5664 12.218 17.5486 12.1897 17.5376 12.1586C17.5265 12.1275 17.5226 12.0942 17.526 12.0614L18.0136 7.42917C18.0214 7.39025 18.0395 7.35414 18.066 7.32459C18.0926 7.29505 18.1265 7.27316 18.1644 7.26121C18.2022 7.24925 18.2426 7.24767 18.2813 7.25664C18.3199 7.26559 18.3555 7.28477 18.3842 7.31215L21.8876 11.3129C21.9132 11.3427 21.9304 11.3788 21.9375 11.4175C21.9446 11.4562 21.9412 11.496 21.9278 11.533C21.9144 11.5699 21.8915 11.6026 21.8613 11.6278C21.8311 11.653 21.7947 11.6697 21.756 11.6762Z" fill="white" stroke="white" stroke-width="0.2438" stroke-miterlimit="10"/>
<path d="M65.6308 40.2972L67.3106 35.8307L63.5 33.0465H68.3736L69.9314 28.6216L71.2016 33.127H75.8704L71.9379 35.7503L73.1277 40.2972L69.6852 37.7153" fill="#F57520"/>
<path d="M45.5352 47.7628H50.4266L64.0335 0.627441H59.1421L45.5352 47.7628Z" fill="white"/>
<path fill-rule="evenodd" clip-rule="evenodd" d="M52.7383 47.7628L54.2502 43.0493H71.4145L71.7135 43.0495C72.1615 43.05 72.5882 43.0505 72.9986 43.0403C75.29 42.9169 77.3833 41.6646 78.9995 40.0182C80.6744 38.3121 81.6131 36.0157 81.6134 33.6235C81.6135 31.2156 80.6631 28.9051 78.9693 27.1955C78.1052 26.3232 77.094 25.9124 75.9914 25.7165C75.2809 25.6217 74.5645 25.5653 73.8648 25.5419C73.5559 25.5356 73.2432 25.5335 72.9276 25.5314C72.8257 25.5307 72.7235 25.53 72.6211 25.5292H58.8748L60.2088 21.2603H66.9678C68.1738 21.2603 68.8877 21.2729 69.5087 21.2839C70.5363 21.3021 71.3097 21.3158 73.6379 21.2603C74.8619 21.2312 75.6672 21.1925 76.3827 20.9992C77.54 20.5659 78.6006 19.8822 79.4828 18.9832C81.0516 17.3844 81.9309 15.2324 81.9312 12.9907C81.9313 10.7342 81.0694 8.27717 79.4828 6.67505C77.8965 5.07327 75.7531 4.82592 73.5007 4.80743H65.1002L66.0785 0.627511H72.126C72.6095 0.627511 72.9971 0.622948 73.3334 0.61899C74.4817 0.605474 75.0309 0.59901 76.7506 0.805378C76.989 0.833986 77.2073 0.877997 77.4097 0.935744C79.4346 1.29055 81.2992 2.03294 82.8138 3.56234C85.2684 6.04111 86.6069 9.49953 86.6228 12.9907C86.6076 16.4597 85.2409 19.7856 82.8138 22.2604C82.5035 22.5768 82.1776 22.8528 81.838 23.0938C82.0669 23.2688 82.2899 23.4645 82.5066 23.6832C85.1271 26.3283 86.605 29.8981 86.622 33.6235C86.6057 37.3253 85.1467 40.8745 82.5556 43.5154C80.8927 45.2102 78.8475 46.4084 76.6185 47.0711C75.3662 47.51 73.9359 47.7628 72.3039 47.7628H52.7383Z" fill="white"/>
<path d="M0.888672 0.627197H5.69114L17.1637 40.381L15.385 47.7625L0.888672 0.627197Z" fill="white"/>
<path d="M17.2539 47.7628H21.9674L31.9281 9.16516L43.3117 47.7628L45.624 40.2033L33.7068 0.627441H29.2601L17.2539 47.7628Z" fill="white"/>
</svg>
