<svg width="40" height="40" viewBox="0 0 40 40" fill="none" xmlns="http://www.w3.org/2000/svg">
<path d="M18.5938 0.046875C18.4453 0.0625 17.9844 0.117188 17.5781 0.164062C15.1484 0.4375 12.3594 1.33594 10.2266 2.53906C8.55469 3.48437 7.20312 4.50781 5.85938 5.85937C2.66406 9.04688 0.671875 13.125 0.117188 17.5781C-0.0390625 18.8438 -0.0390625 21.2344 0.117188 22.5C0.546875 25.9688 2.00781 29.5469 4.11719 32.2891C4.67188 33 5.24219 33.1953 5.90625 32.8984C6.39062 32.6797 6.60156 32.3281 6.60156 31.7422C6.60156 31.3281 6.57031 31.2266 6.34375 30.9219C4.30469 28.2031 3.15625 25.5313 2.6875 22.4219C2.52344 21.3359 2.5 19.0547 2.64844 17.9688C3.75 9.72656 10.1719 3.47656 18.3672 2.65625C18.8594 2.60156 19.3438 2.57812 19.4375 2.59375C19.5703 2.60937 19.3281 2.85937 18.1875 3.86719C17.2969 4.65625 16.7344 5.21094 16.6719 5.36719C16.2031 6.46875 17.2891 7.55469 18.3828 7.07812C18.7422 6.92187 23.7969 2.40625 23.9531 2.10156C24.1172 1.78125 24.1172 1.19531 23.9531 0.882812C23.75 0.484375 23.4141 0.304688 22.6719 0.1875C22.0078 0.078125 19.1328 -0.015625 18.5938 0.046875Z" fill="#4C4C4C"/>
<path d="M34.0942 7.1797C33.6098 7.39845 33.3989 7.75002 33.3989 8.33595C33.3989 8.75001 33.4301 8.85158 33.6567 9.15626C36.8755 13.4375 38.0786 18.1719 37.188 23.1094C36.3208 27.9219 33.4301 32.1797 29.2583 34.8047C26.813 36.3438 23.8208 37.2578 20.7973 37.3906L19.8051 37.4375L21.227 36.0391C22.0083 35.2735 22.688 34.5703 22.727 34.4766C22.7739 34.3828 22.813 34.1172 22.813 33.8906C22.813 33.3985 22.6255 33.0391 22.2505 32.8125C21.9067 32.6016 21.2192 32.6016 20.8989 32.8047C20.5942 33 15.9614 37.5 15.7739 37.7813C15.5551 38.1094 15.5708 38.8047 15.8051 39.1406C16.0708 39.5469 16.3989 39.6875 17.2895 39.8125C23.563 40.6563 29.7895 38.586 34.188 34.1875C37.1255 31.2422 39.0161 27.5703 39.7739 23.3047C40.0083 21.9922 40.0708 19.125 39.8911 17.6563C39.4614 14.1328 38.0942 10.7422 35.9536 7.90627C35.3208 7.06252 34.7973 6.85939 34.0942 7.1797Z" fill="#4C4C4C"/>
<path d="M12.6953 11.8828C11.3828 11.9844 10.3516 12.4531 9.45312 13.3594C8.48438 14.3281 8.08594 15.3672 8.14062 16.8515C8.15625 17.5078 8.19531 17.6797 8.32812 17.8672C8.89844 18.6406 9.92969 18.6406 10.5 17.8672C10.625 17.7031 10.6641 17.4844 10.7031 16.8125C10.7422 16.1875 10.7969 15.8984 10.9219 15.6562C11.8203 13.9062 15.0938 14.0547 15.9688 15.8828C16.3594 16.7031 16.2812 17.914 15.7891 18.625C15.4922 19.0547 14.6406 19.8281 13.3594 20.8281C10.5703 23 9.39844 24.2031 8.47656 25.8281C8.17188 26.3515 8.125 26.5078 8.125 26.8828C8.125 27.3984 8.32031 27.75 8.75 28C9.01562 28.1562 9.14844 28.164 13.4375 28.1875C16.5078 28.2031 17.9766 28.1875 18.2578 28.125C19.1953 27.9219 19.5859 26.875 19.0078 26.1094C18.6406 25.6172 18.6953 25.625 15.1016 25.625H11.8438L12.3828 25.0703C12.6875 24.7656 13.7031 23.8984 14.6484 23.1406C18.125 20.3672 18.7578 19.4375 18.7734 17.0703C18.7812 15.4922 18.3828 14.4765 17.3438 13.4297C16.2109 12.2812 14.5781 11.7344 12.6953 11.8828Z" fill="#4C4C4C"/>
<path d="M28.2275 11.875C28.0947 11.9063 27.8916 12 27.79 12.0781C27.5088 12.2891 19.1416 22.4844 19.0478 22.7266C18.9306 23.0313 19.0166 23.7266 19.1963 23.9688C19.2822 24.0859 19.4697 24.25 19.6181 24.3359C19.876 24.4844 20.0478 24.4922 23.5791 24.5156L27.2666 24.5391V25.8359C27.2666 27.3281 27.3603 27.6641 27.8681 27.9766C28.2431 28.2109 28.8681 28.2109 29.2431 27.9766C29.751 27.6641 29.8447 27.3281 29.8447 25.8438V24.5547L30.4306 24.5078C31.1025 24.4609 31.4385 24.3047 31.6963 23.9063C31.9306 23.5625 31.9463 22.8828 31.7197 22.5156C31.4619 22.0938 31.1416 21.9531 30.4541 21.9531H29.8447V17.4063C29.8447 12.9688 29.8447 12.8516 29.6806 12.5313C29.4306 12.0078 28.8213 11.7344 28.2275 11.875ZM27.2431 21.9297C27.2275 21.9453 26.2666 21.9453 25.1103 21.9375L23.001 21.9141L25.1181 19.3516L27.2275 16.7813L27.251 19.3438C27.2588 20.75 27.2588 21.9141 27.2431 21.9297Z" fill="#4C4C4C"/>
</svg>
