<svg width="40" height="34" viewBox="0 0 40 34" fill="none" xmlns="http://www.w3.org/2000/svg">
<path d="M7.16432 0.695312C6.80494 0.914062 6.99244 0.625 3.20338 6.72656C0.0549414 11.7891 0.0471288 11.7969 0.0158788 12.2734C0.000253843 12.6562 0.0236913 12.7969 0.172129 13.0234C0.273691 13.1797 4.594 17.8125 9.7815 23.3125C16.5159 30.4531 19.2893 33.3359 19.4612 33.3984C19.7815 33.5078 20.219 33.5078 20.5393 33.3984C20.7112 33.3359 23.4846 30.4531 30.219 23.3125C35.4065 17.8125 39.7268 13.1797 39.8284 13.0234C39.9768 12.7969 40.0003 12.6562 39.9846 12.2734C39.9534 11.7969 39.9456 11.7812 37.1174 7.23438C32.9299 0.507812 33.1799 0.890625 32.8284 0.6875L32.5159 0.515625H19.9924H7.46119L7.16432 0.695312ZM12.5003 3.26562C12.4924 3.32031 12.1487 5.07031 11.7346 7.15625L10.969 10.9453L7.35963 10.9688L3.75025 10.9844L4.12525 10.3828C4.33619 10.0469 5.42994 8.28906 6.55494 6.46875L8.60963 3.17188H10.5549C12.0628 3.17188 12.5003 3.19531 12.5003 3.26562ZM24.719 3.30469C24.7893 3.53906 26.3284 10.7969 26.3284 10.8906C26.3284 10.9609 24.7424 10.9844 20.0393 10.9844C16.5784 10.9844 13.7503 10.9609 13.7503 10.9219C13.7424 10.8906 14.0862 9.13281 14.5081 7.01562L15.2737 3.17188H19.9768C24.3831 3.17188 24.6799 3.17969 24.719 3.30469ZM33.8128 7.05469L36.2268 10.9453L32.7112 10.9688C30.7737 10.9766 29.1799 10.9688 29.1565 10.9453C29.1018 10.8984 27.5081 3.50781 27.5003 3.30469C27.5003 3.17969 27.6409 3.17188 29.4456 3.17188H31.3909L33.8128 7.05469ZM13.6409 19.8906L16.094 26.0234L15.6331 25.5547C15.1878 25.0938 5.07057 14.3438 4.69557 13.9297L4.50025 13.7188L7.844 13.7344L11.1878 13.7578L13.6409 19.8906ZM25.9065 13.8516C25.4924 14.9609 20.0393 28.4062 20.0081 28.4062C19.9768 28.4062 18.6331 25.1016 17.0159 21.0625L14.0784 13.7188H20.0159C25.6409 13.7188 25.9534 13.7266 25.9065 13.8516ZM35.3049 13.9297C34.9143 14.3672 24.8049 25.1016 24.3987 25.5156L23.9768 25.9453L24.1409 25.5156C24.4768 24.6484 28.8362 13.8438 28.8753 13.7812C28.8987 13.75 30.3987 13.7188 32.2034 13.7188H35.4924L35.3049 13.9297Z" fill="#4C4C4C"/>
</svg>
