<svg width="40" height="40" viewBox="0 0 40 40" fill="none" xmlns="http://www.w3.org/2000/svg">
<g clip-path="url(#clip0_0_743)">
<path d="M17.7342 0.117138C16.6873 0.24995 16.5311 0.296825 16.1795 0.554638C15.7733 0.8437 15.6717 1.05464 15.0077 2.92964C14.703 3.7812 14.4452 4.48433 14.4373 4.49214C14.4217 4.49995 14.0858 4.63276 13.6873 4.79683L12.9608 5.0937L12.1639 4.72651C9.56234 3.50776 9.67953 3.55464 9.17953 3.56245C8.6014 3.56245 8.38265 3.67183 7.42172 4.43745C6.4764 5.19526 5.19515 6.47651 4.43734 7.42183C3.74203 8.29683 3.6014 8.55464 3.5389 9.05464C3.49203 9.48433 3.65609 9.92964 4.57015 11.8437L5.1014 12.9531L4.79672 13.6796C4.63265 14.0859 4.49984 14.4218 4.49203 14.4375C4.48422 14.4453 3.78109 14.7031 2.92953 15.0078C2.07797 15.3046 1.24984 15.625 1.08578 15.7031C0.773279 15.8671 0.452967 16.2265 0.320154 16.5859C0.0232792 17.3671 -0.0939083 20.5468 0.117029 22.2421C0.249842 23.2968 0.312342 23.5156 0.593592 23.8906C0.851404 24.2265 1.13265 24.3593 2.94515 24.9999C3.7889 25.2968 4.48422 25.5546 4.49203 25.5624C4.49984 25.5781 4.6014 25.8281 4.71859 26.1328C4.84359 26.4296 4.96859 26.7656 5.01547 26.8749C5.08578 27.0468 4.99984 27.2734 4.39047 28.5546C4.00765 29.3671 3.64828 30.1718 3.59359 30.3437C3.48422 30.6953 3.53109 31.2187 3.71859 31.5859C4.2889 32.6796 6.96859 35.3828 8.36703 36.2656C8.6639 36.4531 9.29672 36.5234 9.65609 36.4062C9.82797 36.3515 10.6327 35.9921 11.4452 35.6093C12.7264 34.9999 12.953 34.914 13.1248 34.9843C13.2342 35.0312 13.5702 35.1562 13.867 35.2812C14.1717 35.3984 14.4217 35.4999 14.4373 35.5078C14.4452 35.5156 14.703 36.2109 14.9998 37.0546C15.6405 38.8671 15.7733 39.1484 16.1092 39.4062C16.4842 39.6874 16.6795 39.7421 17.7108 39.8828C19.3748 40.1015 22.617 39.9843 23.4217 39.6796C23.7733 39.5468 24.1327 39.2265 24.2967 38.914C24.3748 38.7499 24.6952 37.9218 24.992 37.0703C25.2967 36.2187 25.5545 35.5156 25.5623 35.5078C25.578 35.4999 25.8358 35.3984 26.1327 35.2812C26.4373 35.1562 26.7655 35.0312 26.8748 34.9843C27.0467 34.914 27.2733 34.9999 28.5545 35.6093C29.3748 35.9921 30.1717 36.3515 30.3436 36.4062C30.703 36.5234 31.3358 36.4531 31.6327 36.2656C33.0311 35.3828 35.7108 32.6796 36.2811 31.5859C36.4686 31.2187 36.5155 30.6953 36.4061 30.3437C36.3514 30.1718 35.992 29.3671 35.6092 28.5546C34.9998 27.2734 34.9139 27.0468 34.9842 26.8749C35.0311 26.7656 35.1561 26.4296 35.2811 26.1328C35.3983 25.8281 35.4998 25.5781 35.5077 25.5624C35.5155 25.5546 36.2108 25.2968 37.0545 24.9999C38.867 24.3593 39.1483 24.2265 39.4061 23.8906C39.6873 23.5156 39.7498 23.2968 39.8827 22.2421C40.0311 21.0234 40.0311 18.9687 39.8827 17.7421C39.6561 15.9296 39.6405 15.914 36.7577 14.8906L35.4998 14.4453L35.2733 13.8515C35.1405 13.5234 35.0077 13.1796 34.9764 13.0937C34.9217 12.9687 35.0702 12.5859 35.6092 11.4453C35.992 10.625 36.3514 9.82808 36.4061 9.6562C36.5155 9.30464 36.4686 8.7812 36.2811 8.41401C35.867 7.60933 33.9061 5.49995 32.578 4.43745C31.617 3.67183 31.3983 3.56245 30.8202 3.56245C30.3202 3.55464 30.4373 3.50776 27.8358 4.72651L27.0389 5.0937L26.3123 4.79683C25.9139 4.63276 25.578 4.49995 25.5623 4.49214C25.5545 4.48433 25.2967 3.7812 24.992 2.92964C24.6952 2.07808 24.3748 1.24995 24.2967 1.08589C24.1327 0.773388 23.7733 0.453075 23.4217 0.320263C22.6483 0.0312004 19.328 -0.0937996 17.7342 0.117138ZM20.9764 3.51558H21.4686L22.0389 5.13276C22.7655 7.18745 22.8358 7.2812 24.1014 7.73433C24.578 7.89839 25.3123 8.20308 25.742 8.4062C26.4295 8.73433 26.5858 8.7812 27.0311 8.7812C27.5077 8.7812 27.6248 8.74214 29.0467 8.06245L30.5623 7.3437L31.1014 7.82026C31.3983 8.08589 31.8748 8.55464 32.1483 8.86714L32.6561 9.43745L31.9373 10.9453C31.2577 12.375 31.2186 12.4921 31.2186 12.9687C31.2186 13.414 31.2655 13.5703 31.6092 14.2968C31.828 14.75 32.1248 15.4687 32.2733 15.8984C32.492 16.539 32.6014 16.7421 32.8905 17.039C33.2186 17.3671 33.3514 17.4296 34.867 17.9609L36.4842 18.5312L36.4998 19.1328C36.5155 19.7109 36.4842 21.4296 36.453 21.4609C36.4452 21.4687 35.703 21.7421 34.7967 22.0624C32.8045 22.7812 32.6952 22.8671 32.2655 24.1093C32.117 24.539 31.828 25.2499 31.6092 25.7031C31.2655 26.4296 31.2186 26.5859 31.2186 27.0312C31.2186 27.5078 31.2577 27.6249 31.9373 29.0546L32.6639 30.5703L32.4452 30.8124C31.9061 31.414 31.4139 31.914 31.0077 32.2734L30.5623 32.6562L29.0545 31.9374C27.617 31.2578 27.5155 31.2187 27.0311 31.2187C26.5858 31.2265 26.4217 31.2734 25.703 31.6093C25.2498 31.8281 24.5311 32.1249 24.1014 32.2734C23.4608 32.4921 23.2577 32.6015 22.9608 32.8906C22.6327 33.2187 22.5702 33.3515 22.0389 34.8515L21.4686 36.4609L20.7342 36.4999C20.328 36.5234 19.6717 36.5234 19.2655 36.4999L18.5311 36.4609L17.9608 34.8515C17.4295 33.3515 17.367 33.2187 17.0389 32.8906C16.742 32.6015 16.5389 32.4921 15.8983 32.2734C15.4686 32.1249 14.7498 31.8281 14.2967 31.6093C13.5702 31.2656 13.4217 31.2187 12.9686 31.2187C12.492 31.2187 12.3748 31.2656 10.9452 31.9374L9.43734 32.6562L8.99203 32.2734C8.58578 31.914 8.09359 31.414 7.55453 30.8124L7.33578 30.5703L8.06234 29.0546C8.74203 27.6249 8.78109 27.5078 8.78109 27.0312C8.78109 26.5859 8.73422 26.4296 8.39047 25.7031C8.17172 25.2499 7.88265 24.539 7.73422 24.1093C7.30453 22.8671 7.19515 22.7812 5.20297 22.0624C4.29672 21.7421 3.55453 21.4687 3.54672 21.4609C3.51547 21.4296 3.48422 19.7109 3.49984 19.1328L3.51547 18.5312L5.14047 17.9609C6.64828 17.4296 6.78109 17.3671 7.10922 17.039C7.39828 16.7421 7.50765 16.539 7.7264 15.8984C7.87484 15.4687 8.17172 14.75 8.39047 14.2968C8.73422 13.5703 8.78109 13.414 8.78109 12.9687C8.78109 12.4921 8.74203 12.375 8.06234 10.9453L7.34359 9.43745L7.8514 8.86714C8.12484 8.55464 8.6014 8.08589 8.89828 7.82026L9.43734 7.3437L10.953 8.06245C12.3748 8.74214 12.492 8.7812 12.9686 8.7812C13.4139 8.78901 13.5702 8.74214 14.2577 8.4062C14.6873 8.20308 15.4295 7.89839 15.8983 7.72651C17.1561 7.2812 17.2342 7.18745 17.9608 5.14058L18.5311 3.52339L19.1717 3.49214C19.5155 3.47651 19.9608 3.47651 20.1483 3.49214C20.3358 3.49995 20.7108 3.51558 20.9764 3.51558Z" fill="#4C4C4C"/>
<path d="M18.3668 11.8047C15.1481 12.4844 12.7184 15.0078 12.1481 18.25C11.5465 21.6875 13.3121 25.1719 16.4371 26.7188C16.8746 26.9375 17.5777 27.2031 18.0074 27.3203C18.6949 27.5 18.9371 27.5234 19.9996 27.5234C21.0621 27.5234 21.3043 27.5 21.9918 27.3203C26.8981 26.0156 29.3824 20.5781 27.1246 16.0547C25.5074 12.7969 21.9215 11.0625 18.3668 11.8047ZM21.0543 15.2734C22.1871 15.5625 23.3277 16.4297 23.8902 17.4297C25.1246 19.6172 24.2184 22.4844 21.9371 23.5859C18.5231 25.2344 14.7652 22.1563 15.7027 18.4844C15.9137 17.6641 16.2418 17.1016 16.9137 16.4375C17.7809 15.5781 18.7496 15.1719 19.9606 15.1641C20.3121 15.1563 20.8043 15.2109 21.0543 15.2734Z" fill="#4C4C4C"/>
</g>
<defs>
<clipPath id="clip0_0_743">
<rect width="40" height="40" fill="white"/>
</clipPath>
</defs>
</svg>
