<svg width="40" height="40" viewBox="0 0 40 40" fill="none" xmlns="http://www.w3.org/2000/svg">
<path d="M18.6953 0.117191C17.1641 0.390629 16.0625 0.976566 14.625 2.26563C13.6094 3.1875 12.4141 3.66407 11.125 3.67188C10.0938 3.67188 8.70313 4 7.8125 4.45313C6.46094 5.13282 5.125 6.46875 4.45313 7.8125C4 8.70313 3.67188 10.0938 3.67188 11.125C3.66406 12.2969 3.25 13.4531 2.50781 14.3359C1.36719 15.6875 1.125 16.0234 0.773438 16.7578C0.195313 17.9453 0.046875 18.6328 0.046875 20C0.046875 21.3359 0.195313 22.0313 0.726563 23.1641C1.09375 23.9453 1.48438 24.5078 2.20313 25.2969C3.21875 26.4063 3.57031 27.2734 3.67188 28.8984C3.76563 30.4141 4.02344 31.3984 4.57813 32.4141C5.28125 33.6875 6.52344 34.8906 7.8125 35.5469C8.69531 36 10.0938 36.3281 11.125 36.3281C12.4141 36.3359 13.6328 36.8203 14.6328 37.7344C15.4375 38.4688 15.9609 38.8438 16.6016 39.1719C18.0781 39.9219 19.6719 40.1641 21.2734 39.8828C22.8047 39.6172 23.9688 39.0156 25.2813 37.8125C26.4063 36.7813 27.2578 36.4297 28.9297 36.3281C31.2266 36.1797 32.7969 35.5 34.1797 34.0469C35.5938 32.5781 36.1797 31.1641 36.3281 28.9375C36.4297 27.25 36.7734 26.4219 37.8516 25.2266C38.8516 24.125 39.4141 23.1328 39.75 21.8828C39.9219 21.2422 39.9453 20.9688 39.9453 20C39.9453 19.0313 39.9219 18.7578 39.75 18.1172C39.3984 16.8203 38.8359 15.8438 37.7344 14.6328C36.8203 13.6328 36.3359 12.4141 36.3281 11.125C36.3281 9.98438 35.9688 8.57813 35.4219 7.59375C34.6172 6.11719 33.0859 4.75782 31.6406 4.21094C30.8203 3.89844 30.0313 3.74219 28.9297 3.67188C27.2578 3.57032 26.4063 3.21875 25.2813 2.1875C24.3125 1.29688 23.5156 0.796879 22.5156 0.437504C21.3438 0.0234413 19.8906 -0.101559 18.6953 0.117191ZM21.0547 2.46094C21.8672 2.63282 22.7578 3.09375 23.4609 3.71875C24.4297 4.57032 24.9063 4.90625 25.6641 5.27344C26.5859 5.72657 27.4531 5.92969 28.7422 6.01563C29.3281 6.05469 29.9844 6.14063 30.1953 6.19532C31.8594 6.64844 33.2031 7.9375 33.7188 9.5625C33.8594 10.0234 33.9375 10.4766 33.9844 11.2578C34.0703 12.5859 34.2734 13.4219 34.7656 14.4141C35.1641 15.2188 35.3516 15.4844 36.2813 16.5391C38.1094 18.625 38.1094 21.3594 36.2734 23.4688C35.3438 24.5313 35.1641 24.7891 34.7656 25.5859C34.2734 26.5781 34.0703 27.4141 33.9844 28.7422C33.8516 30.8281 33.1406 32.1563 31.6484 33.1406C30.8281 33.6797 30.0547 33.8984 28.7422 33.9844C27.4141 34.0703 26.5781 34.2734 25.5859 34.7656C24.7813 35.1641 24.5156 35.3516 23.4609 36.2813C21.3828 38.1094 18.6172 38.1094 16.5391 36.2813C15.4844 35.3516 15.2188 35.1641 14.4141 34.7656C13.4219 34.2734 12.5859 34.0703 11.2578 33.9844C10.4766 33.9375 10.0234 33.8594 9.5625 33.7188C7.9375 33.2031 6.64844 31.8594 6.19531 30.1953C6.14063 29.9844 6.05469 29.3281 6.01563 28.7422C5.92969 27.4141 5.71875 26.5781 5.23438 25.5859C4.83594 24.7813 4.64844 24.5156 3.71875 23.4609C1.89063 21.3828 1.89063 18.625 3.71875 16.5313C4.60156 15.5234 4.91406 15.0781 5.27344 14.3359C5.72656 13.4063 5.92969 12.5469 6.01563 11.2578C6.11719 9.75 6.32031 9.09375 6.98438 8.17188C7.96875 6.78907 9.25 6.14063 11.2578 6.01563C13.4766 5.875 14.6484 5.36719 16.5313 3.71875C17.8516 2.5625 19.4453 2.125 21.0547 2.46094Z" fill="#4C4C4C"/>
<path d="M18.8672 8.25781C15.1797 8.69531 12.1328 10.5391 10.1641 13.5234C9.29688 14.8281 8.67969 16.3516 8.39063 17.9297C8.1875 19.0078 8.1875 20.9922 8.39063 22.0703C9.29688 26.9531 13.0469 30.7031 17.9297 31.6094C19.0078 31.8125 20.9922 31.8125 22.0703 31.6094C26.9531 30.7031 30.7031 26.9531 31.6094 22.0703C31.8125 20.9922 31.8125 19.0078 31.6094 17.9297C30.6641 12.8516 26.6484 9.00781 21.5625 8.32031C20.8125 8.21875 19.4531 8.1875 18.8672 8.25781ZM21.4063 10.6562C24.4141 11.1172 27.0547 13.0312 28.4141 15.7422C29.1641 17.2266 29.4063 18.2969 29.4063 20C29.4063 21.3125 29.2891 22.0703 28.9297 23.0859C27.7813 26.2812 25.1953 28.5469 21.8594 29.2656C20.9531 29.4687 19.0391 29.4609 18.125 29.2656C15.8438 28.7734 13.7969 27.4609 12.3828 25.5859C11.5781 24.5156 10.875 22.8125 10.6641 21.4297C9.96875 16.8437 12.6563 12.5 17.1172 11.0078C18.4297 10.5703 19.9766 10.4453 21.4063 10.6562Z" fill="#4C4C4C"/>
<path d="M21.4062 18.7891L18.3203 21.875L16.875 20.4297L15.4297 18.9844L14.6094 19.8047L13.7891 20.625L16.0781 22.9141L18.3594 25.1953L22.2656 21.2891C24.4141 19.1406 26.1719 17.3438 26.1719 17.3047C26.1719 17.2031 24.6719 15.7031 24.5703 15.7031C24.5234 15.7031 23.1016 17.0938 21.4062 18.7891Z" fill="#4C4C4C"/>
</svg>
