<?xml version="1.0" standalone="no"?>
<!DOCTYPE svg PUBLIC "-//W3C//DTD SVG 20010904//EN"
 "http://www.w3.org/TR/2001/REC-SVG-20010904/DTD/svg10.dtd">
<svg version="1.0" xmlns="http://www.w3.org/2000/svg"
 width="201.000000pt" height="155.000000pt" viewBox="0 0 201.000000 155.000000"
 preserveAspectRatio="xMidYMid meet">

<g transform="translate(0.000000,155.000000) scale(0.100000,-0.100000)"
fill="#000000" stroke="none">
<path d="M134 893 c-22 -15 -36 -56 -30 -86 11 -53 32 -67 103 -67 61 0 63 -1
63 -25 0 -25 -1 -25 -80 -25 -79 0 -80 0 -80 -25 0 -25 0 -25 93 -25 117 0
137 11 137 76 0 74 -10 84 -84 84 -43 0 -67 5 -76 15 -21 26 0 35 81 35 78 0
80 1 77 23 -3 21 -8 22 -98 25 -52 1 -100 -1 -106 -5z"/>
<path d="M380 769 l0 -130 33 3 c27 2 32 7 32 28 0 22 5 25 42 28 39 3 42 1
45 -25 3 -24 8 -28 41 -31 l37 -3 0 131 0 131 -37 -3 -38 -3 -3 -73 -3 -73
-42 3 -41 3 3 52 c4 74 -4 93 -40 93 l-29 0 0 -131z"/>
<path d="M654 887 c-2 -7 -3 -65 -2 -128 l3 -114 38 -3 37 -3 0 130 0 131 -35
0 c-20 0 -38 -6 -41 -13z"/>
<path d="M780 770 l0 -130 35 0 35 0 0 105 0 105 25 0 25 0 0 -105 0 -105 35
0 34 0 3 103 c3 94 4 102 23 102 18 0 20 -8 25 -100 l5 -100 33 -3 32 -3 0
115 c0 149 4 146 -177 146 l-133 0 0 -130z"/>
<path d="M1154 886 c-16 -13 -19 -29 -22 -130 l-4 -116 35 0 c31 0 36 3 39 28
3 24 8 27 45 30 39 3 42 1 45 -25 3 -24 8 -28 41 -31 l37 -3 0 110 c0 144 -6
151 -118 151 -52 0 -85 -5 -98 -14z m134 -94 l3 -53 -43 3 c-42 3 -43 4 -46
42 -5 58 2 68 45 64 l38 -3 3 -53z"/>
<path d="M1409 896 c-2 -2 -3 -61 -1 -130 l3 -126 30 0 29 0 0 105 0 105 29 0
c59 0 61 -3 61 -111 l0 -99 35 0 35 0 0 110 c0 143 -6 150 -130 150 -48 0 -89
-2 -91 -4z"/>
<path d="M1689 881 c-22 -18 -24 -27 -24 -111 0 -116 12 -130 114 -130 58 0
71 3 89 23 19 20 22 35 22 110 0 76 -3 89 -22 107 -31 28 -145 29 -179 1z
m120 -45 c7 -9 11 -40 9 -78 l-3 -63 -34 -3 c-20 -2 -37 2 -42 10 -13 20 -11
122 3 136 16 16 53 15 67 -2z"/>
<path d="M1911 868 c0 -13 3 -17 6 -10 2 6 9 10 14 6 5 -3 9 2 9 10 0 9 -7 16
-15 16 -9 0 -15 -9 -14 -22z"/>
</g>
</svg>
