<?xml version="1.0" standalone="no"?>
<!DOCTYPE svg PUBLIC "-//W3C//DTD SVG 20010904//EN"
 "http://www.w3.org/TR/2001/REC-SVG-20010904/DTD/svg10.dtd">
<svg version="1.0" xmlns="http://www.w3.org/2000/svg"
 width="245.000000pt" height="62.000000pt" viewBox="0 0 245.000000 62.000000"
 preserveAspectRatio="xMidYMid meet">

<g transform="translate(0.000000,62.000000) scale(0.100000,-0.100000)"
fill="#000000" stroke="none">
<path d="M91 401 c-23 -24 -51 -103 -51 -142 0 -5 59 -9 135 -9 75 0 135 -4
135 -9 0 -39 -9 -41 -151 -41 -76 0 -139 -1 -139 -3 0 -1 -4 -17 -9 -35 l-10
-32 205 0 206 0 28 28 c16 16 34 49 40 73 6 24 13 52 16 62 5 16 -6 17 -134
17 l-139 0 5 25 4 25 139 0 139 0 10 26 c6 14 10 30 10 35 0 5 -85 9 -206 9
l-206 0 -27 -29z"/>
<path d="M617 406 c-14 -13 -31 -43 -38 -67 -6 -24 -22 -81 -34 -127 l-22 -83
86 3 86 3 14 53 c8 28 17 52 20 52 3 0 26 -25 51 -55 l45 -55 93 0 94 0 -41
46 c-23 26 -41 51 -41 55 0 5 22 9 49 9 l49 0 11 44 c16 66 14 103 -9 126 -19
19 -33 20 -204 20 -179 0 -184 -1 -209 -24z m262 -78 c-5 -18 -9 -34 -9 -35 0
-2 -30 -3 -66 -3 -64 0 -66 1 -60 23 3 12 6 28 6 35 0 8 21 12 69 12 l70 0
-10 -32z"/>
<path d="M1157 400 c-14 -16 -28 -38 -31 -47 -12 -40 -56 -209 -56 -216 0 -4
37 -7 82 -5 l83 3 19 53 19 52 58 0 c32 0 60 -4 63 -8 3 -5 -1 -30 -9 -56
l-14 -47 87 3 87 3 37 140 c21 77 38 143 38 148 0 4 -99 7 -219 7 l-219 0 -25
-30z m273 -49 c0 -5 -4 -21 -10 -35 -9 -24 -14 -26 -70 -26 -52 0 -60 2 -60
19 0 45 9 51 76 51 35 0 64 -4 64 -9z"/>
<path d="M1680 348 c-12 -46 -30 -114 -40 -151 l-19 -68 86 3 87 3 29 113 30
112 52 0 53 0 -29 -107 c-16 -60 -29 -112 -29 -116 0 -4 37 -7 82 -5 l81 3 30
113 30 112 48 0 c33 0 49 -4 49 -12 0 -7 -11 -55 -25 -106 -14 -51 -25 -98
-25 -103 0 -5 37 -9 83 -9 l82 0 28 108 c33 129 33 142 4 170 -23 22 -28 22
-344 22 l-321 0 -22 -82z"/>
<path d="M2424 176 c-3 -9 -10 -14 -14 -11 -4 3 -10 -4 -13 -16 -4 -16 -3 -18
8 -9 9 8 15 8 20 0 9 -15 25 -2 25 20 0 25 -18 36 -26 16z m16 -17 c0 -11 -4
-18 -10 -14 -5 3 -7 12 -3 20 7 21 13 19 13 -6z"/>
</g>
</svg>
