<?xml version="1.0" standalone="no"?>
<!DOCTYPE svg PUBLIC "-//W3C//DTD SVG 20010904//EN"
 "http://www.w3.org/TR/2001/REC-SVG-20010904/DTD/svg10.dtd">
<svg version="1.0" xmlns="http://www.w3.org/2000/svg"
 width="125.000000pt" height="126.000000pt" viewBox="0 0 125.000000 126.000000"
 preserveAspectRatio="xMidYMid meet">

<g transform="translate(0.000000,126.000000) scale(0.100000,-0.100000)"
fill="#000000" stroke="none">
<path d="M16 794 c-15 -40 -7 -54 32 -54 21 0 41 -2 44 -5 3 -3 -5 -60 -18
-128 -13 -67 -24 -128 -24 -134 0 -9 17 -13 53 -13 l53 0 18 93 c9 50 22 113
27 139 l10 47 47 3 c43 3 47 5 53 36 l6 32 -147 0 c-126 0 -149 -2 -154 -16z"/>
<path d="M350 707 c-128 -68 -111 -257 23 -257 23 0 53 7 65 16 12 8 22 10 22
5 0 -6 20 -11 45 -11 38 0 45 3 49 23 8 37 36 214 36 226 0 14 -87 15 -92 0
-2 -6 -14 -5 -33 5 -41 22 -64 20 -115 -7z m114 -73 c22 -21 20 -60 -4 -84
-22 -22 -69 -27 -88 -8 -21 21 -14 65 14 87 32 25 57 27 78 5z"/>
<path d="M704 716 c-50 -22 -87 -79 -92 -142 -4 -51 -3 -55 31 -89 32 -32 40
-35 90 -35 76 0 87 6 87 46 0 33 -1 34 -43 34 -49 0 -67 13 -67 50 0 49 41 75
100 65 37 -6 38 -6 42 29 3 32 1 37 -26 46 -39 14 -84 12 -122 -4z"/>
<path d="M952 659 l43 -61 -73 -69 -74 -69 60 0 c42 0 63 5 72 15 7 9 26 25
41 36 l28 20 23 -35 c22 -35 25 -36 86 -36 l64 0 -51 65 c-28 35 -51 68 -51
72 0 5 28 34 62 65 l63 57 -59 1 c-52 0 -64 -4 -89 -27 l-29 -28 -22 28 c-19
24 -29 27 -79 27 l-58 0 43 -61z"/>
</g>
</svg>
