<?xml version="1.0" standalone="no"?>
<!DOCTYPE svg PUBLIC "-//W3C//DTD SVG 20010904//EN"
 "http://www.w3.org/TR/2001/REC-SVG-20010904/DTD/svg10.dtd">
<svg version="1.0" xmlns="http://www.w3.org/2000/svg"
 width="237.000000pt" height="96.000000pt" viewBox="0 0 237.000000 96.000000"
 preserveAspectRatio="xMidYMid meet">

<g transform="translate(0.000000,96.000000) scale(0.100000,-0.100000)"
fill="#000000" stroke="none">
<path d="M137 604 c-16 -17 -3 -49 61 -151 103 -162 144 -223 152 -223 4 0 56
77 115 171 85 135 106 175 98 188 -9 14 -39 16 -215 19 -112 1 -207 -1 -211
-4z m253 -33 c0 -11 4 -11 19 3 13 12 21 14 26 6 3 -5 12 -7 18 -3 24 14 45 9
49 -12 4 -20 1 -21 -66 -20 -39 0 -77 4 -83 8 -7 5 -19 5 -25 0 -19 -12 -77
-13 -84 -2 -4 7 -10 6 -18 0 -9 -7 -17 -5 -28 9 -9 10 -14 20 -12 23 2 2 49 4
104 3 80 0 100 -3 100 -15z m93 -93 c-15 -29 -50 -88 -79 -131 l-52 -78 -19
28 c-34 48 -143 222 -143 228 0 3 72 5 160 5 l160 0 -27 -52z"/>
<path d="M265 470 l7 -25 -28 25 c-25 23 -25 21 6 -23 31 -44 35 -47 47 -30 7
10 17 24 23 31 21 23 7 45 -28 46 -30 1 -32 -1 -27 -24z"/>
<path d="M377 481 c-2 -9 6 -30 18 -47 l21 -31 17 24 c10 13 13 23 7 23 -7 0
-9 8 -5 19 4 15 0 20 -24 23 -21 3 -31 0 -34 -11z"/>
<path d="M326 415 c-8 -22 4 -45 24 -45 20 0 36 33 25 50 -9 15 -42 12 -49 -5z"/>
<path d="M333 338 c2 -7 10 -13 17 -13 7 0 15 6 18 13 2 7 -5 12 -18 12 -13 0
-20 -5 -17 -12z"/>
<path d="M630 515 c0 -11 12 -15 45 -15 l45 0 0 -76 0 -75 48 3 47 3 3 73 3
72 34 0 c39 0 39 0 24 -34 -18 -38 -4 -69 41 -95 35 -20 53 -23 114 -19 61 3
79 8 109 31 l37 28 0 -30 c0 -30 1 -31 45 -31 l45 0 0 69 c0 39 4 72 10 76 15
9 60 -6 60 -21 0 -8 -11 -19 -25 -24 -14 -5 -25 -16 -25 -24 0 -17 57 -12 103
9 24 12 27 11 28 -3 0 -9 2 -30 2 -47 l2 -30 122 -3 c114 -2 123 -1 135 18 18
29 112 29 130 0 11 -18 24 -20 100 -20 l88 0 0 40 c0 22 4 40 8 40 4 0 26 -18
47 -40 31 -32 46 -40 75 -40 20 0 40 3 44 7 4 4 -14 26 -41 49 l-48 42 33 35
c28 29 31 35 17 41 -32 12 -52 6 -88 -29 -20 -19 -38 -35 -42 -35 -3 0 -5 16
-5 35 0 35 0 35 -45 35 l-44 0 -3 -76 -3 -75 -53 75 c-48 70 -55 76 -87 76
-31 0 -40 -7 -91 -75 l-56 -75 -49 0 c-46 0 -49 2 -49 25 0 23 4 25 45 25 33
0 45 4 45 15 0 11 -12 15 -46 15 -38 0 -45 3 -42 18 2 13 15 18 51 20 32 2 47
7 44 15 -2 8 -35 13 -95 15 -76 2 -93 0 -98 -13 -5 -12 -9 -13 -21 -4 -8 7
-59 14 -119 17 l-104 5 0 -32 c0 -17 -4 -31 -10 -31 -5 0 -10 4 -10 9 0 5 -19
19 -43 30 -49 24 -131 28 -172 9 -19 -9 -28 -9 -37 0 -8 8 -57 12 -145 12
-112 0 -133 -2 -133 -15z m438 -43 c20 -26 14 -60 -13 -78 -48 -31 -104 7 -91
62 11 43 75 53 104 16z m712 -44 c0 -5 -13 -8 -30 -8 -35 0 -36 2 -13 36 l16
26 13 -24 c7 -12 13 -26 14 -30z"/>
</g>
</svg>
