<?xml version="1.0" standalone="no"?>
<!DOCTYPE svg PUBLIC "-//W3C//DTD SVG 20010904//EN"
 "http://www.w3.org/TR/2001/REC-SVG-20010904/DTD/svg10.dtd">
<svg version="1.0" xmlns="http://www.w3.org/2000/svg"
 width="183.000000pt" height="78.000000pt" viewBox="0 0 183.000000 78.000000"
 preserveAspectRatio="xMidYMid meet">

<g transform="translate(0.000000,78.000000) scale(0.100000,-0.100000)"
fill="#000000" stroke="none">
<path d="M115 513 c8 -75 31 -187 43 -210 11 -18 43 61 77 190 l24 87 -76 0
-75 0 7 -67z"/>
<path d="M395 548 c10 -47 52 -179 72 -225 l16 -38 18 65 c11 36 22 102 26
148 l6 82 -72 0 -73 0 7 -32z"/>
<path d="M282 515 c0 -16 2 -22 5 -12 2 9 2 23 0 30 -3 6 -5 -1 -5 -18z"/>
<path d="M321 460 c-1 -47 -8 -146 -16 -220 -12 -121 -11 -136 3 -147 12 -10
19 -10 30 -1 11 10 13 27 7 83 -4 38 -11 138 -15 220 -5 119 -7 133 -9 65z"/>
<path d="M361 500 c-2 -33 41 -315 49 -324 5 -5 14 1 21 16 9 21 6 41 -15 111
-15 48 -33 115 -40 149 -8 35 -14 56 -15 48z"/>
<path d="M249 376 c-15 -55 -31 -115 -37 -132 -8 -25 -6 -37 8 -59 l18 -27 11
67 c17 94 33 234 29 244 -2 5 -15 -37 -29 -93z"/>
<path d="M737 390 c-5 -18 -1 -19 41 -13 42 6 45 5 38 -13 -4 -10 -10 -32 -13
-47 -3 -16 -12 -31 -19 -34 -33 -12 -9 -24 44 -21 54 3 57 4 54 27 -1 14 3 40
9 59 11 33 13 34 49 28 32 -5 38 -3 43 14 5 19 0 20 -118 20 -114 0 -123 -1
-128 -20z"/>
<path d="M1005 380 c7 -32 -10 -100 -26 -100 -5 0 -9 -4 -9 -10 0 -5 22 -10
49 -10 l49 0 13 60 c13 58 14 60 46 60 26 0 33 -4 33 -20 0 -14 -9 -21 -36
-26 l-35 -7 32 -33 c26 -26 41 -34 69 -34 50 0 56 10 23 38 -19 16 -24 25 -15
29 20 8 42 33 42 49 0 24 -45 34 -146 34 l-96 0 7 -30z"/>
<path d="M1283 359 c0 -30 -7 -57 -17 -68 -9 -10 -16 -21 -16 -24 0 -4 49 -7
109 -7 90 0 110 3 115 16 3 9 6 17 6 19 0 1 -29 0 -65 -3 -57 -4 -65 -3 -59
11 3 9 20 17 42 19 48 4 55 28 8 28 -27 0 -36 4 -36 16 0 15 9 16 65 11 60 -6
65 -5 65 13 0 19 -7 20 -107 20 l-108 0 -2 -51z"/>
<path d="M1522 365 c0 -25 -7 -57 -16 -70 -23 -35 -21 -36 31 -33 39 2 49 7
51 23 7 37 20 38 47 6 23 -26 34 -31 70 -31 57 0 64 14 24 47 l-32 27 29 23
c16 13 35 23 42 23 6 0 12 7 12 15 0 11 -12 15 -45 15 -29 0 -45 -4 -45 -12 0
-14 -62 -58 -81 -58 -6 0 -9 6 -6 13 21 57 22 57 -31 57 l-49 0 -1 -45z"/>
</g>
</svg>
