<?xml version="1.0" standalone="no"?>
<!DOCTYPE svg PUBLIC "-//W3C//DTD SVG 20010904//EN"
 "http://www.w3.org/TR/2001/REC-SVG-20010904/DTD/svg10.dtd">
<svg version="1.0" xmlns="http://www.w3.org/2000/svg"
 width="233.000000pt" height="76.000000pt" viewBox="0 0 233.000000 76.000000"
 preserveAspectRatio="xMidYMid meet">

<g transform="translate(0.000000,76.000000) scale(0.100000,-0.100000)"
fill="#000000" stroke="none">
<path d="M1086 752 c-3 -5 -2 -131 1 -280 l6 -272 59 0 58 0 0 108 c0 123 11
152 60 152 49 0 60 -29 60 -152 l0 -108 60 0 60 0 0 131 c0 151 -11 188 -65
213 -48 23 -96 20 -138 -8 l-36 -25 -3 122 -3 122 -57 3 c-31 2 -59 -1 -62 -6z"/>
<path d="M765 546 c-37 -17 -80 -62 -94 -99 -18 -48 -13 -120 12 -168 43 -81
150 -114 225 -69 26 16 32 17 32 5 0 -12 14 -15 60 -15 l60 0 0 175 0 175 -60
0 c-45 0 -60 -4 -60 -14 0 -11 -8 -10 -37 5 -43 22 -95 24 -138 5z m155 -116
c27 -27 27 -90 0 -115 -12 -11 -36 -19 -55 -19 -47 0 -75 28 -75 76 0 49 28
78 75 78 22 0 43 -8 55 -20z"/>
<path d="M1569 532 c-123 -64 -134 -232 -19 -308 72 -48 199 -44 274 9 35 25
65 89 66 140 1 147 -176 235 -321 159z m170 -108 c39 -49 23 -106 -35 -123
-81 -23 -139 65 -82 126 31 33 90 32 117 -3z"/>
<path d="M2014 536 c-69 -32 -97 -74 -102 -151 -6 -111 61 -183 182 -192 162
-13 273 108 222 242 -43 111 -181 157 -302 101z m165 -112 c12 -15 21 -37 21
-49 0 -12 -9 -34 -21 -49 -16 -20 -29 -26 -60 -26 -50 0 -79 27 -79 75 0 48
29 75 79 75 31 0 44 -6 60 -26z"/>
<path d="M89 378 l90 -173 43 -3 43 -3 40 91 c22 49 42 90 46 90 3 0 23 -41
45 -90 l38 -91 44 3 43 3 90 173 90 172 -69 0 -68 0 -44 -97 -44 -97 -45 97
c-44 97 -44 97 -81 97 -36 0 -36 0 -80 -97 l-44 -96 -45 96 -44 97 -69 0 -69
0 90 -172z"/>
</g>
</svg>
