<?xml version="1.0" standalone="no"?>
<!DOCTYPE svg PUBLIC "-//W3C//DTD SVG 20010904//EN"
 "http://www.w3.org/TR/2001/REC-SVG-20010904/DTD/svg10.dtd">
<svg version="1.0" xmlns="http://www.w3.org/2000/svg"
 width="222.000000pt" height="95.000000pt" viewBox="0 0 222.000000 95.000000"
 preserveAspectRatio="xMidYMid meet">

<g transform="translate(0.000000,95.000000) scale(0.100000,-0.100000)"
fill="#000000" stroke="none">
<path d="M177 639 c-57 -13 -86 -37 -93 -75 -10 -56 2 -83 49 -104 58 -27 76
-26 50 3 -31 34 -37 64 -18 93 27 41 72 54 192 54 l108 -1 -50 -26 c-55 -28
-103 -75 -111 -110 -9 -33 4 -88 24 -114 17 -20 21 -21 72 -10 30 7 70 21 88
31 39 23 52 25 52 7 0 -8 8 -21 18 -30 45 -41 170 39 226 145 51 94 94 128
164 128 28 0 46 -7 64 -24 l24 -25 33 21 c30 20 32 22 14 29 -44 16 -133 21
-186 9 -94 -19 -153 -66 -223 -178 -73 -116 -94 -128 -94 -50 0 52 35 147 59
162 6 4 11 12 11 17 0 17 -85 -48 -115 -88 -65 -88 -130 -143 -170 -143 -8 0
-15 6 -15 13 0 34 57 127 117 189 67 69 67 71 36 65 -18 -4 -70 -2 -115 3
-147 17 -172 18 -211 9z"/>
<path d="M1443 600 c0 -16 2 -30 4 -30 3 0 18 14 35 30 l30 30 -35 0 c-31 0
-34 -3 -34 -30z"/>
<path d="M1512 601 c-11 -32 -5 -40 16 -19 9 9 12 9 12 0 0 -7 5 -12 10 -12
14 0 12 27 -2 34 -7 2 -4 4 7 3 11 -1 22 3 25 8 3 6 -9 11 -26 13 -27 3 -33
-1 -42 -27z"/>
<path d="M1599 604 c-5 -15 -7 -30 -3 -33 7 -7 34 28 34 46 0 23 -20 14 -31
-13z"/>
<path d="M1652 610 c-18 -30 -15 -40 16 -40 21 0 24 2 12 10 -12 8 -12 10 5
11 11 0 14 3 8 6 -20 8 -15 21 10 26 17 3 15 5 -8 6 -20 1 -34 -6 -43 -19z"/>
<path d="M1741 621 c-12 -8 -12 -12 -2 -24 10 -13 8 -16 -11 -20 -22 -4 -22
-4 2 -5 30 -2 62 17 43 25 -18 7 -16 26 2 19 8 -3 15 -1 15 4 0 12 -30 13 -49
1z"/>
<path d="M1813 618 c2 -7 0 -21 -5 -30 -6 -13 -5 -18 6 -18 8 0 18 9 21 20 3
11 13 20 21 20 8 0 14 5 14 10 0 6 -14 10 -31 10 -20 0 -29 -4 -26 -12z"/>
<path d="M1878 605 c-12 -26 -4 -46 11 -29 5 5 12 19 16 32 9 31 -12 29 -27
-3z"/>
<path d="M1932 605 c-17 -36 -15 -41 8 -20 18 16 20 16 20 2 0 -23 27 -21 40
2 17 33 11 47 -10 21 l-20 -25 0 23 c0 30 -24 28 -38 -3z"/>
<path d="M2033 601 l-22 -28 37 1 c32 2 37 5 40 29 4 37 -25 36 -55 -2z m37 5
c0 -3 -4 -8 -10 -11 -5 -3 -10 -1 -10 4 0 6 5 11 10 11 6 0 10 -2 10 -4z"/>
<path d="M1135 604 c-71 -36 -145 -138 -145 -197 0 -66 61 -84 150 -43 l35 16
-40 -6 c-84 -11 -98 51 -32 138 44 57 87 82 111 65 17 -13 17 -16 3 -44 -19
-36 -69 -80 -112 -99 -16 -7 -23 -13 -14 -14 9 0 39 15 65 33 77 51 114 123
82 155 -17 17 -67 15 -103 -4z"/>
<path d="M948 579 c-23 -13 -23 -45 -2 -53 17 -6 64 18 64 32 0 12 -22 32 -34
32 -6 0 -19 -5 -28 -11z"/>
<path d="M1336 574 c-35 -35 -2 -67 40 -39 28 18 31 40 8 49 -24 9 -31 8 -48
-10z"/>
<path d="M1473 519 c-44 -22 -93 -89 -93 -128 0 -21 35 -51 60 -51 26 0 85 19
105 35 18 13 16 13 -18 4 -76 -20 -99 15 -54 82 22 33 61 49 78 32 12 -12 -16
-51 -55 -74 -17 -10 -26 -19 -20 -19 22 0 79 46 93 75 28 58 -23 81 -96 44z"/>
<path d="M1626 521 c-19 -21 -14 -41 10 -41 18 0 18 -11 -1 -46 -51 -97 37
-121 153 -42 68 47 127 69 203 75 55 5 73 10 84 27 13 18 13 21 -1 29 -38 21
-151 -22 -267 -103 -41 -27 -81 -50 -90 -50 -25 0 -21 41 8 84 31 46 31 46 -1
46 -17 0 -28 6 -31 20 -7 26 -44 26 -67 1z"/>
<path d="M856 470 c-30 -37 -43 -94 -26 -115 15 -18 32 -19 83 -4 40 11 53 33
13 23 -13 -3 -27 -1 -30 5 -7 11 27 85 44 96 21 13 9 25 -24 25 -26 0 -41 -7
-60 -30z"/>
<path d="M1240 453 c-36 -56 -38 -88 -9 -104 17 -8 31 -8 60 0 43 13 66 36 26
26 -14 -4 -28 -2 -31 4 -7 11 27 85 44 96 21 13 9 25 -25 25 -31 0 -39 -6 -65
-47z"/>
</g>
</svg>
