<?xml version="1.0" standalone="no"?>
<!DOCTYPE svg PUBLIC "-//W3C//DTD SVG 20010904//EN"
 "http://www.w3.org/TR/2001/REC-SVG-20010904/DTD/svg10.dtd">
<svg version="1.0" xmlns="http://www.w3.org/2000/svg"
 width="368.000000pt" height="287.000000pt" viewBox="0 0 368.000000 287.000000"
 preserveAspectRatio="xMidYMid meet">

<g transform="translate(0.000000,287.000000) scale(0.100000,-0.100000)"
fill="#000000" stroke="none">
<path d="M1030 2570 c-25 -3 -44 -9 -42 -15 1 -5 7 -10 14 -10 18 0 21 -24 4
-31 -9 -3 -16 -15 -16 -25 0 -22 11 -24 28 -7 9 9 36 12 80 9 61 -3 70 -6 94
-34 31 -36 34 -47 14 -47 -37 0 -36 -24 8 -209 24 -103 49 -187 57 -192 22
-14 79 -11 85 5 3 8 -15 96 -39 196 -34 139 -42 184 -33 193 7 7 15 20 19 30
3 9 16 17 28 17 13 0 31 8 41 17 19 17 44 25 88 27 32 1 47 34 26 55 -20 19
-322 39 -339 22 -13 -13 -30 -15 -23 -2 6 9 -21 9 -94 1z m418 -27 c-10 -2
-26 -2 -35 0 -10 3 -2 5 17 5 19 0 27 -2 18 -5z m-188 -44 l25 -7 -25 -1 c-20
-1 -22 -3 -10 -11 12 -8 11 -10 -7 -10 -12 0 -23 -5 -25 -12 -6 -18 -25 -2
-36 32 -11 29 -10 29 21 23 18 -3 43 -10 57 -14z m73 -36 c-7 -2 -19 -2 -25 0
-7 3 -2 5 12 5 14 0 19 -2 13 -5z m-69 -160 c8 -63 1 -65 -11 -3 -6 27 -7 50
-3 50 4 0 10 -21 14 -47z m-14 -53 c4 -23 4 -38 0 -33 -11 10 -25 90 -15 81 4
-4 11 -26 15 -48z m27 -32 c-3 -8 -6 -5 -6 6 -1 11 2 17 5 13 3 -3 4 -12 1
-19z"/>
<path d="M3258 2342 c-16 -9 -28 -22 -28 -29 0 -7 -7 -10 -15 -7 -14 6 -20 -6
-16 -29 1 -5 -3 -6 -8 -3 -12 8 -33 -18 -23 -29 4 -5 1 -5 -6 -1 -9 5 -15 1
-19 -13 -3 -11 -9 -19 -13 -16 -12 7 -91 -40 -83 -50 5 -4 -5 -5 -20 -1 -20 5
-27 3 -22 -4 5 -7 -2 -9 -21 -4 -19 5 -25 4 -20 -5 6 -9 0 -10 -20 -5 -21 5
-25 4 -19 -6 6 -10 -5 -12 -59 -6 -98 10 -126 17 -126 32 0 22 -35 34 -95 34
-47 0 -60 -4 -79 -24 -22 -25 -23 -25 -68 -8 -36 13 -51 14 -69 5 -23 -11 -23
-12 6 -7 18 3 61 -6 110 -24 l80 -28 3 -58 3 -58 -101 4 c-97 3 -101 2 -95
-17 3 -11 8 -33 12 -48 5 -27 8 -28 40 -22 19 3 50 14 69 22 30 15 35 15 51 1
11 -10 39 -16 73 -17 260 -8 271 -10 262 -56 -6 -32 -17 -40 -77 -54 -61 -14
-80 -25 -71 -40 5 -8 15 -6 32 8 13 10 44 22 69 25 53 8 74 33 82 96 4 30 1
45 -12 60 -18 20 -75 25 -87 6 -5 -8 -8 -7 -8 2 0 6 -7 12 -15 12 -8 0 -15 -6
-15 -12 0 -10 -2 -10 -9 0 -4 8 -14 13 -22 12 -8 -1 -31 -2 -51 -1 l-38 1 0
50 c0 46 2 50 24 50 14 0 28 5 31 10 3 6 39 10 78 10 40 0 99 7 132 15 33 8
75 14 93 15 21 0 42 9 57 25 14 13 25 21 25 17 0 -3 21 14 48 39 55 53 116 99
131 99 6 0 18 -14 26 -31 22 -42 30 -30 11 16 -21 49 -21 48 17 40 17 -4 29
-4 25 0 -4 5 -28 11 -54 15 -41 6 -47 5 -54 -14 -6 -14 -9 -16 -11 -6 -1 8 -1
18 0 23 2 11 -12 8 -41 -11z m-690 -359 c-10 -2 -28 -2 -40 0 -13 2 -5 4 17 4
22 1 32 -1 23 -4z"/>
<path d="M2007 1994 c-4 -4 -7 -14 -7 -23 0 -11 3 -12 11 -4 6 6 10 16 7 23
-2 6 -7 8 -11 4z"/>
<path d="M2102 1987 c-5 -6 -15 -23 -21 -37 -12 -25 -12 -25 6 -4 15 16 21 18
30 9 9 -9 9 -15 0 -24 -9 -9 -8 -11 6 -5 14 5 17 13 13 30 -5 20 -3 24 16 24
17 0 19 -3 9 -9 -8 -5 -9 -11 -3 -15 6 -3 12 0 15 6 3 10 12 9 37 -4 17 -10
39 -18 48 -18 15 -1 14 -3 -2 -15 -16 -12 -17 -15 -4 -15 9 0 19 7 22 16 9 23
8 24 -13 24 -40 0 -27 15 14 16 23 1 51 7 61 13 18 12 18 12 -1 7 -66 -15 -87
-17 -81 -8 3 6 1 14 -5 18 -7 4 -9 3 -5 -4 4 -7 -12 -9 -55 -6 -34 2 -65 7
-69 9 -4 3 -12 -1 -18 -8z"/>
<path d="M1519 1979 c-9 -5 17 -9 69 -9 45 0 82 3 82 8 0 10 -134 12 -151 1z"/>
<path d="M1787 1972 c-10 -10 -17 -22 -17 -27 0 -5 6 0 14 11 15 19 15 19 30
-1 15 -19 15 -19 16 8 0 32 -19 36 -43 9z"/>
<path d="M2364 1958 c-14 -25 -19 -29 -22 -15 -5 26 -26 20 -45 -13 -19 -32
-13 -41 9 -12 12 16 13 15 14 -7 0 -24 0 -24 21 -5 24 22 53 73 45 81 -2 3
-13 -10 -22 -29z"/>
<path d="M1932 1960 c0 -14 2 -19 5 -12 2 6 2 18 0 25 -3 6 -5 1 -5 -13z"/>
<path d="M2405 1915 c0 -36 3 -61 8 -56 12 12 12 100 1 111 -5 5 -9 -17 -9
-55z"/>
<path d="M1623 1953 c9 -2 25 -2 35 0 9 3 1 5 -18 5 -19 0 -27 -2 -17 -5z"/>
<path d="M662 1739 c-157 -20 -293 -90 -418 -214 -78 -77 -98 -104 -138 -185
-25 -52 -53 -122 -61 -155 -36 -139 -29 -298 20 -438 77 -221 282 -407 514
-464 88 -22 274 -22 361 0 117 28 233 91 321 172 52 48 119 125 119 137 0 4
-12 8 -27 8 -20 0 -35 -10 -53 -36 -14 -19 -54 -59 -89 -89 -217 -183 -509
-216 -770 -88 -103 51 -241 187 -294 290 -120 232 -101 520 48 729 230 322
689 390 993 146 39 -31 46 -33 70 -23 l26 12 -30 25 c-107 89 -231 146 -362
169 -92 16 -133 17 -230 4z"/>
<path d="M2637 1732 c-9 -13 12 -82 25 -82 7 0 8 13 5 37 -7 39 -21 61 -30 45z"/>
<path d="M2790 1734 c-78 -14 -81 -18 -57 -84 18 -51 27 -63 40 -51 7 5 29 12
50 16 31 6 37 11 37 32 0 24 -2 25 -37 18 -21 -3 -49 -9 -62 -12 -32 -8 -23
19 10 28 47 14 243 9 304 -6 315 -81 535 -359 535 -676 0 -318 -208 -589 -514
-669 -39 -10 -62 -19 -51 -20 l20 -1 -20 -9 c-11 -5 -33 -8 -50 -8 l-30 0 30
7 c20 5 -12 9 -90 13 -90 4 -139 12 -198 31 -302 98 -504 389 -484 697 12 186
70 313 202 446 49 50 107 98 128 108 32 15 36 20 27 37 -15 28 -31 24 -96 -24
-139 -103 -243 -253 -285 -414 -26 -99 -29 -259 -5 -355 64 -271 282 -489 554
-555 89 -22 265 -21 355 0 215 53 393 199 487 402 53 113 65 171 64 310 0 142
-17 215 -74 330 -92 185 -242 316 -435 380 -66 23 -102 28 -205 30 -69 2 -136
1 -150 -1z m370 -1404 c-8 -5 -22 -9 -30 -9 -10 0 -8 3 5 9 27 12 43 12 25 0z"/>
<path d="M2376 1701 c-14 -15 -15 -24 -6 -40 9 -17 8 -21 -5 -21 -8 0 -23 -9
-32 -20 -10 -11 -23 -20 -29 -20 -23 0 -36 -27 -24 -49 9 -18 8 -21 -8 -21
-27 0 -71 -44 -78 -79 -4 -19 -11 -28 -20 -24 -7 3 -31 -14 -53 -38 -38 -42
-39 -43 -23 -68 l16 -26 -22 19 c-22 19 -22 19 -57 -18 -31 -33 -49 -76 -26
-62 5 4 7 -3 4 -14 -5 -19 -6 -20 -19 -3 -13 17 -15 17 -32 -2 -9 -11 -24 -19
-33 -17 -9 2 -35 -20 -64 -53 l-47 -56 27 -41 28 -42 34 40 c19 21 52 59 74
83 21 24 39 47 39 52 0 5 6 9 13 9 15 0 77 72 77 89 0 6 6 11 14 11 20 0 30
38 15 56 -9 11 -9 18 -1 26 9 9 15 7 26 -7 12 -16 16 -17 30 -6 10 8 14 21 11
32 -5 15 -1 19 18 19 29 0 77 51 77 82 0 27 -22 18 -38 -15 -14 -28 -32 -36
-31 -14 0 6 13 23 30 35 23 19 33 22 44 12 24 -20 37 -2 30 41 -7 42 0 50 20
22 12 -16 16 -15 49 17 42 41 45 62 13 87 -13 10 -22 24 -19 31 5 17 -2 15
-22 -7z m-411 -531 c3 -5 1 -10 -4 -10 -6 0 -11 5 -11 10 0 6 2 10 4 10 3 0 8
-4 11 -10z m-77 -50 c-7 -10 -14 -17 -17 -15 -4 4 18 35 25 35 2 0 -1 -9 -8
-20z m32 -14 c0 -2 -8 -10 -17 -17 -16 -13 -17 -12 -4 4 13 16 21 21 21 13z"/>
<path d="M2507 1703 c-4 -3 -7 -17 -7 -30 0 -33 24 -24 28 10 3 26 -7 35 -21
20z"/>
<path d="M720 1657 c0 -24 3 -25 73 -32 136 -13 287 -66 330 -116 9 -12 17
-18 17 -14 0 4 7 2 15 -5 15 -12 55 -5 55 10 0 15 -91 79 -155 110 -79 38
-153 57 -254 66 l-81 7 0 -26z"/>
<path d="M585 1651 c-230 -67 -389 -223 -471 -461 -27 -78 -27 -301 0 -380 69
-202 221 -364 408 -434 192 -72 401 -54 580 51 73 43 191 151 184 170 -3 7 1
13 9 13 8 0 29 25 46 55 17 30 35 52 40 49 6 -3 -1 -26 -16 -51 -14 -25 -25
-47 -25 -49 0 -2 12 -4 28 -4 21 0 32 9 50 40 20 36 25 39 42 28 11 -7 20 -16
20 -20 0 -5 7 -8 15 -8 8 0 15 -4 15 -9 0 -14 65 -33 113 -34 64 -1 163 48
193 95 27 43 25 42 114 23 73 -15 93 -8 88 34 -3 23 -12 29 -80 50 l-76 24 -7
46 c-16 103 -86 171 -195 187 -52 7 -60 12 -54 29 4 10 0 15 -10 15 -11 0 -16
9 -16 29 0 16 -8 39 -19 52 -18 22 -19 22 -44 6 l-26 -17 -12 42 c-24 90 -143
288 -173 288 -8 0 -19 -7 -26 -15 -10 -12 -6 -22 23 -56 75 -87 139 -245 152
-375 5 -49 2 -65 -10 -78 -18 -17 -50 -22 -40 -6 3 6 13 10 21 10 8 0 14 1 14
3 0 1 -7 36 -16 77 -9 41 -17 93 -19 116 -2 22 -10 57 -19 77 -12 29 -21 37
-40 37 -15 0 -26 5 -26 10 0 6 7 10 15 10 19 0 19 4 0 40 -21 40 -27 38 -19
-6 11 -60 -13 -31 -26 30 -12 60 -45 102 -56 72 -3 -9 -10 -13 -15 -10 -19 11
-7 -8 35 -60 46 -57 100 -161 91 -175 -3 -5 -1 -11 5 -13 14 -4 39 -134 37
-193 -2 -55 -3 -55 -80 -42 -47 7 -40 -8 11 -24 65 -19 81 -38 73 -86 l-6 -41
-39 13 c-45 16 -56 12 -56 -15 0 -13 9 -22 25 -26 14 -3 25 -8 25 -10 0 -12
-45 -94 -52 -94 -4 0 -8 -7 -8 -17 0 -9 -35 -50 -78 -93 -128 -124 -287 -189
-445 -181 -15 1 -17 6 -12 32 5 22 4 29 -4 25 -6 -4 -11 -18 -11 -32 0 -20 -5
-24 -32 -24 -64 0 -218 51 -218 72 0 5 -4 7 -9 4 -26 -17 -207 152 -239 223
-9 20 -21 43 -28 51 -32 41 -73 253 -59 306 4 16 8 47 10 69 6 97 89 248 186
340 64 59 208 145 246 145 9 0 33 5 54 12 31 9 39 16 39 35 0 28 -12 28 -95 4z
m935 -501 c0 -5 -2 -10 -4 -10 -3 0 -8 5 -11 10 -3 6 -1 10 4 10 6 0 11 -4 11
-10z m56 -50 c8 0 14 -7 14 -16 0 -10 -6 -14 -15 -11 -8 4 -17 2 -20 -2 -2 -5
-15 -11 -27 -14 -20 -5 -19 -3 7 18 26 22 27 25 10 25 -17 0 -17 2 -5 10 10 6
16 6 18 0 2 -6 10 -10 18 -10z m97 -147 c-7 -2 -19 -2 -25 0 -7 3 -2 5 12 5
14 0 19 -2 13 -5z m-13 -33 c12 -8 11 -10 -7 -10 -12 0 -25 5 -28 10 -8 13 15
13 35 0z m-101 -24 c7 -13 10 -33 6 -45 -8 -27 -45 -62 -57 -55 -22 14 2 124
28 124 6 0 16 -11 23 -24z m171 -135 c0 -12 -26 -32 -33 -25 -9 10 4 34 19 34
8 0 14 -4 14 -9z m278 -9 c2 -7 -3 -12 -12 -12 -9 0 -16 7 -16 16 0 17 22 14
28 -4z m-382 -3 c3 -6 0 -15 -7 -20 -10 -6 -7 -9 11 -9 17 0 21 -3 13 -11 -12
-12 -69 -3 -79 12 -8 14 15 39 37 39 10 0 21 -5 25 -11z"/>
<path d="M2902 1648 c3 -20 10 -23 51 -26 26 -2 47 -7 47 -12 0 -5 6 -7 14 -4
28 11 216 -57 216 -78 0 -5 4 -7 8 -4 12 7 116 -77 149 -121 15 -21 34 -45 42
-53 21 -21 81 -151 86 -186 3 -16 10 -51 16 -77 15 -68 3 -204 -26 -287 -61
-173 -212 -324 -380 -380 -121 -40 -280 -42 -400 -4 -50 17 -115 50 -126 67
-3 5 -9 7 -12 5 -11 -6 -107 74 -139 116 -18 22 -35 43 -39 46 -3 3 -20 30
-37 60 -149 268 -67 623 182 795 46 31 55 42 50 59 -4 12 -8 23 -9 24 -9 10
-129 -85 -178 -139 -195 -215 -228 -538 -80 -782 109 -180 293 -301 501 -328
361 -48 697 209 747 573 7 43 5 47 -16 51 l-24 4 24 2 c19 1 22 5 17 24 -3 12
-6 39 -6 60 0 24 -4 36 -11 32 -7 -5 -8 5 -3 29 3 21 1 56 -6 82 -11 40 -16
45 -36 41 -19 -3 -26 3 -39 35 -8 21 -15 53 -15 71 0 18 -7 43 -16 56 l-17 24
-12 -23 c-8 -14 -15 -19 -19 -12 -4 7 -2 21 4 33 14 26 -6 51 -96 115 -114 81
-258 133 -372 134 -39 0 -43 -2 -40 -22z"/>
<path d="M1456 1578 c-10 -23 -26 -58 -34 -75 -11 -23 -13 -36 -6 -43 14 -14
78 29 81 55 3 17 1 16 -7 -2 -5 -13 -15 -23 -21 -23 -8 0 -8 4 1 15 7 8 8 15
2 15 -11 0 -30 -21 -30 -33 0 -5 -3 -11 -6 -14 -3 -4 -6 1 -6 10 0 8 7 22 15
31 8 8 15 23 15 33 0 23 20 56 20 34 0 -8 2 -12 5 -9 3 3 2 15 -3 27 -7 21
-10 19 -26 -21z"/>
<path d="M1477 1553 c-4 -3 -7 -11 -7 -17 0 -6 5 -5 12 2 6 6 9 14 7 17 -3 3
-9 2 -12 -2z"/>
<path d="M2680 1529 c0 -5 5 -7 10 -4 6 3 10 8 10 11 0 2 -4 4 -10 4 -5 0 -10
-5 -10 -11z"/>
<path d="M1493 1453 c-20 -8 -16 -68 6 -87 26 -24 46 -12 24 14 -9 10 -20 17
-25 14 -4 -3 -8 -1 -8 5 0 5 5 13 11 17 8 4 7 9 -2 15 -11 7 -10 9 4 9 9 0 17
5 17 10 0 11 -7 12 -27 3z"/>
<path d="M2784 1394 c3 -16 9 -40 12 -53 10 -45 33 -91 46 -91 9 0 9 -3 -2
-10 -9 -6 -11 -13 -5 -17 6 -5 10 -12 11 -18 1 -22 17 -65 24 -65 4 0 5 -11 3
-24 -3 -13 0 -27 6 -30 30 -19 26 15 -15 132 -43 122 -52 149 -58 181 -1 8 -9
17 -16 19 -9 3 -11 -3 -6 -24z"/>
<path d="M3500 1293 c0 -23 5 -33 15 -33 18 0 18 8 0 40 l-14 25 -1 -32z"/>
<path d="M1950 1235 c-20 -24 -6 -28 15 -5 10 11 13 20 8 20 -6 0 -16 -7 -23
-15z"/>
<path d="M713 1112 c1 -4 -1 -7 -5 -7 -9 0 -58 -58 -59 -70 0 -5 0 -29 1 -52
1 -25 -3 -43 -9 -43 -6 0 -11 5 -11 10 0 6 -7 10 -16 10 -11 0 -14 -6 -8 -22
3 -13 12 -26 19 -30 7 -4 18 -21 25 -38 9 -22 17 -29 30 -25 10 3 21 1 25 -5
3 -6 22 -17 41 -25 42 -17 43 -33 4 -70 -33 -32 -72 -100 -63 -109 4 -3 28 -6
54 -6 40 0 48 3 53 23 8 30 7 49 -1 44 -20 -12 -8 46 14 69 37 40 44 66 25
103 -13 28 -13 34 -1 42 8 5 9 9 3 9 -7 0 -14 6 -17 14 -4 10 1 12 16 9 18 -4
19 -3 7 6 -9 6 -13 23 -12 46 l4 35 -51 0 c-55 0 -60 7 -36 50 19 34 19 35
-10 38 -14 1 -24 -2 -22 -6z m87 -162 c0 -5 -2 -10 -4 -10 -3 0 -8 5 -11 10
-3 6 -1 10 4 10 6 0 11 -4 11 -10z m-37 -77 c-7 -2 -19 -2 -25 0 -7 3 -2 5 12
5 14 0 19 -2 13 -5z m4 -219 c-3 -3 -12 -4 -19 -1 -8 3 -5 6 6 6 11 1 17 -2
13 -5z"/>
<path d="M860 1100 c-9 -6 -10 -10 -3 -10 7 0 10 -10 7 -24 -5 -30 7 -34 81
-26 60 7 60 7 15 10 -25 2 -53 2 -63 2 -14 -2 -17 3 -12 18 4 12 2 20 -5 20
-6 0 -8 5 -5 10 8 12 4 12 -15 0z"/>
<path d="M780 1050 c0 -5 5 -10 11 -10 5 0 7 5 4 10 -3 6 -8 10 -11 10 -2 0
-4 -4 -4 -10z"/>
<path d="M1283 1053 c9 -2 23 -2 30 0 6 3 -1 5 -18 5 -16 0 -22 -2 -12 -5z"/>
<path d="M2934 1025 c4 -16 12 -34 17 -39 5 -6 5 4 -1 24 -12 42 -25 55 -16
15z"/>
<path d="M2896 1012 c-13 -21 -2 -62 17 -62 15 0 18 6 15 32 -3 31 -21 48 -32
30z"/>
<path d="M1128 983 c7 -3 16 -2 19 1 4 3 -2 6 -13 5 -11 0 -14 -3 -6 -6z"/>
<path d="M1068 613 c6 -2 18 -2 25 0 6 3 1 5 -13 5 -14 0 -19 -2 -12 -5z"/>
<path d="M2930 435 c0 -8 4 -15 10 -15 5 0 7 7 4 15 -4 8 -8 15 -10 15 -2 0
-4 -7 -4 -15z"/>
</g>
</svg>
