<?xml version="1.0" standalone="no"?>
<!DOCTYPE svg PUBLIC "-//W3C//DTD SVG 20010904//EN"
 "http://www.w3.org/TR/2001/REC-SVG-20010904/DTD/svg10.dtd">
<svg version="1.0" xmlns="http://www.w3.org/2000/svg"
 width="267.000000pt" height="201.000000pt" viewBox="0 0 267.000000 201.000000"
 preserveAspectRatio="xMidYMid meet">

<g transform="translate(0.000000,201.000000) scale(0.100000,-0.100000)"
fill="#000000" stroke="none">
<path d="M182 1198 c-49 -13 -69 -96 -37 -157 19 -37 34 -43 130 -50 77 -6 80
-7 80 -31 0 -25 0 -25 -107 -28 l-108 -3 0 -34 0 -35 129 0 c114 0 131 2 154
20 42 34 48 126 11 175 -12 17 -30 21 -107 25 -90 5 -92 6 -92 30 0 25 0 25
108 28 l107 3 0 29 c0 22 -5 30 -17 31 -83 5 -227 3 -251 -3z"/>
<path d="M497 1204 c-4 -4 -7 -83 -7 -176 l0 -168 50 0 50 0 0 35 0 35 50 0
c28 0 53 1 58 3 4 1 8 -15 10 -35 l3 -38 50 0 49 0 -2 173 -3 172 -45 0 -45 0
-3 -97 -3 -98 -59 0 -59 0 -3 97 -3 97 -40 4 c-22 2 -44 0 -48 -4z"/>
<path d="M877 1203 c-4 -3 -7 -82 -7 -175 l0 -168 50 0 50 0 0 169 c0 145 -2
170 -16 175 -21 8 -69 8 -77 -1z"/>
<path d="M1038 1204 c-5 -4 -8 -83 -8 -176 l0 -168 50 0 50 0 0 140 0 140 30
0 30 0 0 -140 0 -140 50 0 50 0 0 141 0 140 28 -3 27 -3 5 -135 5 -135 48 -3
47 -3 0 149 c0 147 0 149 -26 173 -25 23 -31 24 -202 27 -97 2 -180 0 -184 -4z"/>
<path d="M1544 1196 c-46 -21 -55 -54 -52 -201 l3 -130 50 0 c49 0 50 1 53 33
2 17 9 32 15 33 7 0 32 1 57 2 l45 2 3 -37 3 -38 50 0 49 0 0 144 c0 136 -1
146 -23 171 -21 25 -29 27 -122 31 -71 3 -109 0 -131 -10z m164 -68 c7 -7 12
-38 12 -70 l0 -58 -60 0 -60 0 0 63 c0 35 3 67 7 70 11 12 88 8 101 -5z"/>
<path d="M1866 1203 c-3 -3 -6 -82 -6 -175 l0 -169 48 3 47 3 3 138 3 138 47
-3 47 -3 5 -135 5 -135 50 0 50 0 3 118 c3 130 -8 191 -39 208 -22 11 -252 22
-263 12z"/>
<path d="M2275 1203 c-11 -3 -30 -14 -42 -26 -21 -19 -23 -29 -23 -144 0 -109
2 -125 20 -143 27 -27 57 -33 151 -28 74 3 83 6 105 31 22 26 24 36 24 142 0
104 -2 116 -23 140 -21 25 -30 27 -107 30 -47 2 -94 1 -105 -2z m124 -77 c8
-9 11 -46 9 -103 l-3 -88 -44 -3 c-28 -2 -47 1 -52 10 -5 7 -9 48 -9 90 0 56
4 81 16 92 19 20 68 21 83 2z"/>
<path d="M2534 1186 c-9 -24 4 -48 23 -44 12 2 18 12 18 28 0 29 -32 41 -41
16z m31 -15 c3 -5 2 -12 -3 -15 -5 -3 -9 1 -9 9 0 17 3 19 12 6z"/>
</g>
</svg>
