<?xml version="1.0" standalone="no"?>
<!DOCTYPE svg PUBLIC "-//W3C//DTD SVG 20010904//EN"
 "http://www.w3.org/TR/2001/REC-SVG-20010904/DTD/svg10.dtd">
<svg version="1.0" xmlns="http://www.w3.org/2000/svg"
 width="267.000000pt" height="206.000000pt" viewBox="0 0 267.000000 206.000000"
 preserveAspectRatio="xMidYMid meet">

<g transform="translate(0.000000,206.000000) scale(0.100000,-0.100000)"
fill="#000000" stroke="none">
<path d="M0 2035 l0 -25 1335 0 1335 0 0 25 0 25 -1335 0 -1335 0 0 -25z"/>
<path d="M494 1191 c-2 -2 -4 -80 -4 -173 l0 -168 50 0 50 0 0 35 0 35 60 0
60 0 0 -35 0 -35 50 0 50 0 0 169 0 169 -42 4 c-24 3 -46 3 -50 1 -5 -2 -8
-47 -8 -99 l0 -94 -60 0 -60 0 0 94 0 94 -46 4 c-25 2 -47 1 -50 -1z"/>
<path d="M874 1191 c-2 -2 -4 -80 -4 -173 l0 -168 50 0 50 0 0 169 0 169 -46
4 c-25 2 -47 1 -50 -1z"/>
<path d="M1034 1191 c-2 -2 -4 -80 -4 -173 l0 -168 50 0 50 0 0 140 0 140 30
0 30 0 0 -140 0 -140 50 0 49 0 3 138 3 137 25 0 25 0 5 -135 5 -135 48 -3 47
-3 0 149 c0 201 14 189 -228 194 -101 1 -186 1 -188 -1z"/>
<path d="M1864 1191 c-2 -2 -4 -80 -4 -173 l0 -169 48 3 47 3 3 138 3 138 47
-3 47 -3 5 -135 5 -135 50 0 50 0 3 118 c3 126 -8 191 -36 206 -17 9 -260 20
-268 12z"/>
<path d="M2280 1192 c-14 -2 -35 -13 -47 -25 -21 -19 -23 -29 -23 -144 0 -109
2 -125 20 -143 27 -27 57 -33 151 -28 74 3 83 6 105 31 22 26 24 36 24 141 0
151 -6 159 -122 166 -45 3 -94 3 -108 2z m118 -74 c8 -8 12 -45 12 -100 0 -78
-2 -88 -21 -98 -23 -13 -70 -5 -81 13 -4 7 -8 47 -8 89 0 56 4 81 16 92 18 19
65 21 82 4z"/>
<path d="M164 1182 c-48 -32 -42 -156 10 -184 11 -7 57 -15 101 -18 77 -5 80
-6 80 -30 0 -25 0 -25 -107 -28 l-108 -3 0 -34 0 -35 129 0 c113 0 131 2 154
20 42 33 48 126 11 175 -12 17 -30 21 -107 25 -90 5 -92 6 -92 30 0 25 0 25
108 28 l107 3 0 29 0 30 -137 0 c-76 0 -143 -4 -149 -8z"/>
<path d="M1521 1171 c-27 -27 -33 -66 -29 -201 l3 -115 50 0 c49 0 50 1 53 33
l3 32 60 0 59 0 0 -35 0 -35 50 0 50 0 0 144 c0 130 -2 146 -21 170 -20 25
-23 26 -140 26 -105 0 -121 -2 -138 -19z m187 -53 c7 -7 12 -38 12 -70 l0 -58
-60 0 -60 0 0 64 c0 42 4 66 13 69 24 10 83 7 95 -5z"/>
<path d="M2534 1176 c-9 -24 4 -48 23 -44 12 2 18 12 18 28 0 29 -32 41 -41
16z m31 -15 c3 -5 2 -12 -3 -15 -5 -3 -9 1 -9 9 0 17 3 19 12 6z"/>
</g>
</svg>
