<?xml version="1.0" standalone="no"?>
<!DOCTYPE svg PUBLIC "-//W3C//DTD SVG 20010904//EN"
 "http://www.w3.org/TR/2001/REC-SVG-20010904/DTD/svg10.dtd">
<svg version="1.0" xmlns="http://www.w3.org/2000/svg"
 width="315.000000pt" height="128.000000pt" viewBox="0 0 315.000000 128.000000"
 preserveAspectRatio="xMidYMid meet">

<g transform="translate(0.000000,128.000000) scale(0.100000,-0.100000)"
fill="#000000" stroke="none">
<path d="M186 804 c-9 -8 -16 -25 -16 -37 1 -29 270 -451 291 -455 10 -2 59
67 157 222 78 124 142 230 142 236 0 5 -9 19 -20 30 -19 19 -33 20 -279 20
-223 0 -262 -2 -275 -16z m334 -42 c0 -13 3 -12 20 3 19 17 21 17 40 0 18 -16
20 -16 20 -2 0 19 30 23 31 5 0 -10 2 -10 6 0 2 6 12 12 20 12 12 0 13 -3 4
-13 -7 -9 -7 -17 0 -24 7 -7 -21 -10 -90 -11 -55 -1 -103 3 -106 8 -3 6 -16 5
-31 0 -47 -18 -105 -15 -120 5 -13 17 -14 17 -14 2 0 -9 -7 -17 -15 -17 -8 0
-15 7 -15 15 0 8 -4 15 -10 15 -5 0 -10 4 -10 9 0 5 60 9 135 9 115 0 135 -3
135 -16z m150 -62 c0 -14 -200 -330 -208 -330 -6 1 -202 309 -210 331 -2 5 90
9 207 9 135 0 211 -4 211 -10z"/>
<path d="M340 750 c0 -5 7 -10 15 -10 8 0 15 5 15 10 0 6 -7 10 -15 10 -8 0
-15 -4 -15 -10z"/>
<path d="M290 657 c0 -4 21 -36 47 -73 l48 -65 7 30 c5 16 18 37 29 45 13 9
19 22 17 38 -3 20 -9 23 -52 26 l-48 3 7 -28 7 -28 -31 29 c-17 17 -31 27 -31
23z"/>
<path d="M490 632 c0 -15 9 -35 20 -45 18 -15 25 -37 21 -61 -4 -19 27 16 69
77 l43 62 -37 -35 -37 -35 10 28 c6 16 11 30 11 33 0 2 -22 4 -50 4 -48 0 -50
-1 -50 -28z"/>
<path d="M430 560 c-13 -23 -5 -59 13 -61 46 -5 71 21 55 57 -14 30 -53 32
-68 4z"/>
<path d="M438 444 c19 -27 30 -26 48 2 13 18 11 19 -26 20 l-39 1 17 -23z"/>
<path d="M1260 695 c-29 -9 -48 -11 -54 -5 -6 6 -87 10 -188 10 -171 0 -178
-1 -178 -20 0 -18 7 -20 60 -20 l60 0 0 -95 0 -95 60 0 59 0 3 93 3 92 48 3
49 3 -16 -23 c-22 -31 -20 -80 4 -111 63 -80 284 -83 367 -5 l23 21 0 -36 0
-37 65 0 65 0 -1 83 c0 45 0 88 0 95 1 14 59 16 81 2 22 -14 0 -44 -34 -48
-20 -3 -26 -9 -26 -29 0 -25 1 -26 52 -20 28 4 68 15 90 25 l38 19 0 -63 0
-64 164 0 c164 0 165 0 184 25 18 22 27 25 86 25 59 0 67 -3 82 -25 16 -24 19
-25 135 -25 l119 0 0 57 0 57 58 -57 c55 -54 60 -57 109 -57 96 0 92 7 -56
127 -3 2 20 25 49 51 l54 49 -54 6 c-54 7 -55 6 -100 -38 -25 -25 -49 -45 -53
-45 -4 0 -7 18 -7 40 l0 40 -65 0 -65 0 0 -97 0 -98 -65 98 -65 97 -58 0 -57
0 -68 -95 -68 -95 -65 0 -64 0 0 30 0 30 60 0 c53 0 60 2 60 20 0 16 -8 19
-57 22 -51 3 -58 6 -61 26 -3 21 0 22 62 22 59 0 66 2 66 20 0 19 -7 20 -130
20 -107 0 -130 -3 -130 -14 0 -13 -4 -13 -35 0 -24 10 -73 14 -165 14 l-130 0
0 -36 0 -36 -30 26 c-61 51 -179 69 -270 41z m150 -55 c27 -27 26 -81 0 -105
-12 -11 -36 -19 -55 -19 -45 0 -75 28 -75 71 0 44 30 73 75 73 22 0 43 -8 55
-20z m934 -32 c23 -44 21 -48 -24 -48 l-41 0 23 40 c13 22 24 40 25 40 1 0 9
-14 17 -32z"/>
<path d="M2914 699 c-4 -8 -3 -9 4 -5 8 5 12 -2 12 -19 0 -15 -4 -24 -10 -20
-5 3 -10 2 -10 -3 0 -6 6 -12 13 -15 9 -3 14 6 15 28 3 35 -11 54 -24 34z"/>
<path d="M2954 695 c-3 -8 -4 -20 -1 -27 3 -7 6 -3 6 10 1 15 5 21 13 16 7 -4
8 -3 4 4 -10 16 -15 15 -22 -3z"/>
<path d="M2959 643 c-13 -16 -12 -17 4 -4 16 13 21 21 13 21 -2 0 -10 -8 -17
-17z"/>
</g>
</svg>
