<?xml version="1.0" standalone="no"?>
<!DOCTYPE svg PUBLIC "-//W3C//DTD SVG 20010904//EN"
 "http://www.w3.org/TR/2001/REC-SVG-20010904/DTD/svg10.dtd">
<svg version="1.0" xmlns="http://www.w3.org/2000/svg"
 width="244.000000pt" height="104.000000pt" viewBox="0 0 244.000000 104.000000"
 preserveAspectRatio="xMidYMid meet">

<g transform="translate(0.000000,104.000000) scale(0.100000,-0.100000)"
fill="#000000" stroke="none">
<path d="M150 733 c1 -99 51 -343 70 -343 15 0 120 322 120 369 0 7 -33 11
-95 11 l-95 0 0 -37z"/>
<path d="M477 700 c5 -84 35 -320 53 -423 l12 -68 24 32 c13 18 24 37 24 41 0
5 -18 70 -39 146 -34 118 -46 171 -75 322 -2 14 -2 -9 1 -50z"/>
<path d="M520 762 c0 -45 106 -372 121 -372 20 0 68 234 69 333 l0 47 -95 0
c-52 0 -95 -4 -95 -8z"/>
<path d="M382 730 c0 -19 2 -27 5 -17 2 9 2 25 0 35 -3 9 -5 1 -5 -18z"/>
<path d="M358 608 c-10 -45 -34 -137 -54 -205 l-37 -123 24 -35 24 -35 7 28
c21 82 68 452 57 452 -3 0 -12 -37 -21 -82z"/>
<path d="M428 660 c-4 -19 -9 -96 -13 -170 -3 -74 -10 -184 -16 -244 -11 -102
-10 -110 7 -123 22 -16 26 -16 48 0 18 13 18 21 7 143 -7 71 -16 197 -20 279
-4 95 -9 137 -13 115z"/>
<path d="M985 535 c-3 -8 -7 -22 -10 -31 -4 -13 0 -15 22 -10 16 3 42 9 59 12
l32 6 -16 -66 c-10 -40 -21 -66 -29 -66 -7 0 -13 -7 -13 -15 0 -12 15 -15 74
-15 72 0 104 13 76 30 -7 4 -10 16 -7 26 3 11 11 38 17 62 12 46 22 50 77 30
37 -13 38 -13 47 25 l6 27 -165 0 c-138 0 -166 -2 -170 -15z"/>
<path d="M1334 535 c-4 -9 -2 -20 4 -24 15 -9 -14 -123 -34 -134 -32 -18 -11
-28 53 -25 l67 3 11 43 10 43 45 -46 c42 -43 47 -45 102 -45 67 0 75 14 28 48
-35 26 -38 38 -11 45 10 2 27 17 37 31 17 26 16 28 -5 49 -20 20 -33 22 -161
25 -124 4 -141 2 -146 -13z m210 -41 c10 -26 -13 -44 -55 -44 -41 0 -42 2 -33
38 5 18 13 22 44 22 26 0 40 -5 44 -16z"/>
<path d="M1706 533 c-4 -9 -2 -19 4 -23 15 -9 -12 -113 -36 -137 -16 -17 -16
-18 7 -24 32 -9 227 -9 259 0 27 7 39 39 20 51 -6 4 -28 1 -48 -6 -20 -7 -52
-13 -69 -14 -28 0 -33 3 -33 24 0 23 4 25 52 28 41 2 54 7 56 21 3 14 -4 17
-42 17 -39 0 -46 3 -46 20 0 17 7 20 42 20 23 0 57 -5 75 -12 36 -13 46 -8 58
30 l6 22 -149 0 c-131 0 -151 -2 -156 -17z"/>
<path d="M2023 534 c-3 -9 -1 -19 5 -23 15 -9 -14 -123 -34 -134 -30 -17 -11
-27 51 -27 l64 0 11 40 c6 22 14 40 17 40 3 0 21 -18 40 -40 34 -39 36 -40 98
-40 69 0 91 14 59 37 -36 26 -64 53 -64 61 0 4 24 21 52 38 29 16 54 37 56 47
3 15 -6 17 -61 17 -58 0 -65 -2 -75 -25 -11 -23 -89 -72 -99 -61 -3 3 0 19 6
37 6 18 11 36 11 40 0 5 -29 9 -65 9 -51 0 -67 -4 -72 -16z"/>
</g>
</svg>
