<?xml version="1.0" standalone="no"?>
<!DOCTYPE svg PUBLIC "-//W3C//DTD SVG 20010904//EN"
 "http://www.w3.org/TR/2001/REC-SVG-20010904/DTD/svg10.dtd">
<svg version="1.0" xmlns="http://www.w3.org/2000/svg"
 width="295.000000pt" height="126.000000pt" viewBox="0 0 295.000000 126.000000"
 preserveAspectRatio="xMidYMid meet">

<g transform="translate(0.000000,126.000000) scale(0.100000,-0.100000)"
fill="#000000" stroke="none">
<path d="M205 844 c-52 -19 -93 -59 -105 -103 -19 -69 42 -137 140 -155 l34
-6 -26 27 c-56 58 -58 115 -6 158 44 37 96 46 238 43 l129 -3 -53 -26 c-113
-53 -156 -106 -156 -193 0 -27 9 -64 22 -91 l23 -46 50 7 c65 8 129 30 177 60
l38 24 6 -24 c3 -13 16 -34 28 -45 21 -20 24 -20 73 -6 105 31 144 70 261 257
18 29 51 66 73 82 71 50 167 45 204 -10 l16 -25 38 23 c21 13 40 28 42 33 6
16 -78 33 -161 34 -88 1 -158 -16 -230 -55 -63 -35 -105 -80 -160 -175 -55
-95 -98 -149 -117 -149 -13 0 -14 12 -11 73 4 77 42 180 79 213 33 29 21 36
-22 13 -39 -23 -87 -71 -199 -199 -37 -44 -71 -71 -108 -88 -29 -13 -55 -22
-58 -20 -7 8 31 113 58 159 29 49 90 116 156 171 l43 36 -63 -5 c-35 -3 -122
2 -193 11 -157 19 -207 19 -260 0z"/>
<path d="M2321 831 c-30 -8 -39 -29 -17 -37 26 -10 18 -27 -9 -20 -14 4 -25 2
-25 -4 0 -14 73 -13 88 2 10 10 8 16 -10 31 l-23 19 28 -5 c29 -5 37 7 11 17
-9 3 -16 6 -17 5 -1 -1 -13 -4 -26 -8z"/>
<path d="M1502 804 c-120 -60 -223 -237 -182 -313 14 -28 65 -44 110 -37 47 7
120 35 120 45 0 4 -25 6 -55 3 -87 -7 -106 27 -65 116 56 124 190 210 190 122
0 -39 -74 -118 -147 -158 -69 -37 -45 -43 28 -7 127 65 195 179 139 235 -27
27 -75 25 -138 -6z"/>
<path d="M1919 820 c12 -7 12 -12 -3 -34 -16 -25 -16 -26 8 -26 17 0 27 8 36
30 8 18 20 30 31 30 23 0 24 -9 3 -38 -14 -20 -14 -22 3 -22 11 0 24 5 31 12
9 9 12 9 12 0 0 -7 9 -12 21 -12 13 0 19 5 16 13 -3 7 4 19 14 25 38 24 18 31
-83 31 -63 0 -97 -3 -89 -9z m151 -4 c0 -3 -4 -8 -10 -11 -5 -3 -10 -1 -10 4
0 6 5 11 10 11 6 0 10 -2 10 -4z"/>
<path d="M2117 795 c-16 -34 -16 -35 3 -35 11 0 26 12 35 30 19 37 19 40 -3
40 -11 0 -25 -14 -35 -35z"/>
<path d="M2185 800 c-21 -40 -20 -40 28 -39 35 1 38 2 17 9 -26 7 -20 13 25
23 18 4 18 5 -2 6 -32 1 -29 19 5 24 19 3 15 4 -15 6 -38 1 -44 -2 -58 -29z"/>
<path d="M2399 821 c12 -8 13 -14 3 -35 -10 -23 -9 -26 8 -26 11 0 26 12 35
29 8 16 23 32 32 34 10 3 -7 5 -37 6 -37 0 -50 -2 -41 -8z"/>
<path d="M2487 795 c-16 -34 -16 -35 3 -35 11 0 26 12 35 30 19 37 19 40 -3
40 -11 0 -25 -14 -35 -35z"/>
<path d="M2555 800 c-18 -36 -19 -40 -1 -40 7 0 21 10 29 23 l16 22 0 -22 c1
-39 44 -30 64 12 16 33 16 35 -2 35 -10 0 -23 -10 -29 -22 l-11 -23 0 23 c-1
35 -46 30 -66 -8z"/>
<path d="M2691 796 l-33 -34 59 2 c58 1 58 1 61 34 3 29 1 32 -25 32 -20 0
-40 -11 -62 -34z m49 4 c0 -5 -5 -10 -11 -10 -5 0 -7 5 -4 10 3 6 8 10 11 10
2 0 4 -4 4 -10z"/>
<path d="M1247 762 c-23 -25 -21 -49 4 -62 42 -23 108 31 84 69 -10 18 -70 13
-88 -7z"/>
<path d="M1766 764 c-24 -23 -20 -53 9 -66 42 -19 102 34 75 67 -16 20 -64 19
-84 -1z"/>
<path d="M1974 706 c-74 -32 -143 -123 -144 -187 0 -64 98 -85 193 -40 61 30
60 43 -3 24 -85 -25 -116 18 -69 97 37 62 83 86 107 57 17 -21 -18 -69 -72
-97 -50 -27 -62 -46 -18 -29 70 26 132 93 132 142 0 43 -64 60 -126 33z"/>
<path d="M2162 700 c-12 -12 -22 -26 -22 -33 0 -18 21 -37 41 -37 14 0 13 -6
-7 -47 -30 -57 -30 -87 -3 -114 36 -36 108 -15 226 64 79 53 155 78 255 84 87
6 88 6 108 40 25 42 15 48 -71 40 -75 -7 -175 -53 -284 -132 -104 -75 -121
-83 -141 -64 -19 20 -7 53 42 121 l34 48 -45 0 c-37 0 -45 3 -45 19 0 35 -55
42 -88 11z"/>
<path d="M1162 655 c-40 -28 -74 -99 -70 -147 3 -40 5 -44 38 -51 26 -7 48 -4
84 10 55 20 78 48 28 34 -64 -19 -67 21 -7 109 19 29 35 54 35 56 0 11 -89 2
-108 -11z"/>
<path d="M1668 643 c-70 -76 -83 -174 -24 -189 30 -7 132 21 139 39 3 9 -6 11
-34 9 -35 -4 -39 -2 -39 20 0 13 15 47 34 75 19 29 37 57 41 63 4 6 -11 10
-43 10 -40 0 -53 -5 -74 -27z"/>
<path d="M2655 561 c-3 -5 -1 -12 5 -16 5 -3 10 1 10 9 0 18 -6 21 -15 7z"/>
</g>
</svg>
