<svg width="14" height="24" viewBox="0 0 14 24" fill="none" xmlns="http://www.w3.org/2000/svg">
<path d="M9.1248 21.1L0.699805 12.7C0.599805 12.6 0.529138 12.4917 0.487805 12.375C0.445805 12.2584 0.424805 12.1334 0.424805 12C0.424805 11.8667 0.445805 11.7417 0.487805 11.625C0.529138 11.5084 0.599805 11.4 0.699805 11.3L9.1248 2.87502C9.35814 2.64169 9.6498 2.52502 9.9998 2.52502C10.3498 2.52502 10.6498 2.65002 10.8998 2.90002C11.1498 3.15002 11.2748 3.44169 11.2748 3.77502C11.2748 4.10836 11.1498 4.40002 10.8998 4.65002L3.5498 12L10.8998 19.35C11.1331 19.5834 11.2498 19.8707 11.2498 20.212C11.2498 20.554 11.1248 20.85 10.8748 21.1C10.6248 21.35 10.3331 21.475 9.9998 21.475C9.66647 21.475 9.3748 21.35 9.1248 21.1Z" fill="#101010"/>
</svg>
