<svg width="14" height="24" viewBox="0 0 14 24" fill="none" xmlns="http://www.w3.org/2000/svg">
<path d="M4.8752 21.1L13.3002 12.7C13.4002 12.6 13.4709 12.4917 13.5122 12.375C13.5542 12.2584 13.5752 12.1334 13.5752 12C13.5752 11.8667 13.5542 11.7417 13.5122 11.625C13.4709 11.5084 13.4002 11.4 13.3002 11.3L4.8752 2.87502C4.64186 2.64169 4.3502 2.52502 4.0002 2.52502C3.6502 2.52502 3.3502 2.65002 3.1002 2.90002C2.8502 3.15002 2.7252 3.44169 2.7252 3.77502C2.7252 4.10836 2.8502 4.40002 3.1002 4.65002L10.4502 12L3.1002 19.35C2.86686 19.5834 2.7502 19.8707 2.7502 20.212C2.7502 20.554 2.8752 20.85 3.1252 21.1C3.3752 21.35 3.66686 21.475 4.0002 21.475C4.33353 21.475 4.6252 21.35 4.8752 21.1Z" fill="#101010"/>
</svg>
